<svg width="18" height="13" xmlns="http://www.w3.org/2000/svg"><g fill="#9A9A9A" fill-rule="nonzero" stroke="#9A9A9A"><path d="M9 3.968c-1.467 0-2.667 1.185-2.667 2.634 0 1.448 1.2 2.634 2.667 2.634 1.467 0 2.667-1.186 2.667-2.634 0-1.449-1.2-2.634-2.667-2.634zm0 4.61c-1.1 0-2-.89-2-1.976 0-1.087.9-1.975 2-1.975s2 .888 2 1.975c0 1.086-.9 1.975-2 1.975z"/><path d="M9 1.005c-6.1 0-8 5.597-8 5.597s2.1 5.597 8 5.597 8-5.597 8-5.597-1.9-5.597-8-5.597zM9 11.54c-4.767 0-6.833-3.95-7.267-4.938C2.133 5.614 4.1 1.664 9 1.664c4.933 0 6.867 3.917 7.267 4.938-.434.955-2.534 4.938-7.267 4.938z"/></g></svg>