<svg width="18" height="18" xmlns="http://www.w3.org/2000/svg"><g fill="none" fill-rule="evenodd"><path d="M9.501 10.48a8.554 8.554 0 0 1-7.38-4.259.802.802 0 0 1 1.388-.804A6.944 6.944 0 0 0 9.5 8.875a6.942 6.942 0 0 0 5.99-3.46.801.801 0 1 1 1.39.803A8.545 8.545 0 0 1 9.5 10.481zm-4.157.8a.8.8 0 0 1-.686-1.215l.886-1.467a.802.802 0 0 1 1.374.829l-.886 1.465a.804.804 0 0 1-.688.387zm8.27 0a.802.802 0 0 1-.687-.388l-.886-1.465a.802.802 0 1 1 1.372-.83l.886 1.465a.802.802 0 0 1-.684 1.217zm-4.113 1.043a.803.803 0 0 1-.802-.802V9.678a.803.803 0 0 1 1.604 0v1.843c0 .442-.359.802-.802.802z" fill="#9A9A9A" fill-rule="nonzero"/><path d="M0 0h18v18H0z"/></g></svg>