<svg width="18" height="18" xmlns="http://www.w3.org/2000/svg"><g fill="none" fill-rule="evenodd"><path d="M0 0h18v18H0z"/><g fill="#9A9A9A" fill-rule="nonzero" stroke="#9A9A9A"><path d="M9.5 5.783c-1.375 0-2.5 1.11-2.5 2.469C7 9.61 8.125 10.72 9.5 10.72S12 9.61 12 8.25c0-1.357-1.125-2.468-2.5-2.468zm0 4.32c-1.031 0-1.875-.833-1.875-1.851 0-1.019.844-1.852 1.875-1.852 1.031 0 1.875.833 1.875 1.852 0 1.018-.844 1.852-1.875 1.852z"/><path d="M9.5 3.005C3.781 3.005 2 8.252 2 8.252s1.969 5.247 7.5 5.247S17 8.252 17 8.252s-1.781-5.247-7.5-5.247zm0 9.876c-4.469 0-6.406-3.703-6.813-4.63.376-.925 2.22-4.629 6.813-4.629 4.625 0 6.438 3.673 6.813 4.63-.407.895-2.375 4.63-6.813 4.63z"/></g></g></svg>