<svg id="kity_svg_6" xmlns="http://www.w3.org/2000/svg" xmlns:xlink="http://www.w3.org/1999/xlink" version="1.1" width="555" height="1045" style="background: rgb(251, 251, 251); visibility: visible;" viewBox="0 0 555 1045"><defs id="kity_defs_7"><linearGradient id="kity_linearGradient_17" x1="0" y1="0" x2="0" y2="1"><stop id="kity_stop_18" offset="0" stop-color="rgb(255, 255, 255)"></stop><stop id="kity_stop_19" offset="1" stop-color="rgb(204, 204, 204)"></stop></linearGradient><marker id="kity_marker_2" orient="auto" refX="6" refY="0" viewBox="-7 -7 14 14" markerWidth="7" markerHeight="7" markerUnits="userSpaceOnUse"><path id="kity_path_3" fill="rgb(115, 161, 191)" stroke="none" d="M6,0A6,6,0,1,1,-6,0A6,6,0,1,1,6,0"></path></marker></defs><g id="kity_g_8"><g id="minder1" text-rendering="optimize-speed"><g id="minder_connect_group1"><path id="kity_path_31" fill="none" stroke="rgb(115, 161, 191)" stroke-width="1" d="M231.5,60.5v30h-144.5V110.5"></path><path id="kity_path_33" fill="none" stroke="rgb(115, 161, 191)" stroke-width="1" d="M231.5,60.5v30h10V110.5"></path><path id="kity_path_35" fill="none" stroke="rgb(115, 161, 191)" stroke-width="1" d="M231.5,60.5v30h155V110.5"></path><path id="kity_path_37" fill="none" stroke="rgb(115, 161, 191)" stroke-width="1" d="M349.5,136.5V182.5L369.5,182.5"></path><path id="kity_path_39" fill="none" stroke="rgb(115, 161, 191)" stroke-width="1" d="M349.5,136.5V234.5L369.5,234.5"></path><path id="kity_path_41" fill="none" stroke="rgb(115, 161, 191)" stroke-width="1" d="M349.5,136.5V286.5L369.5,286.5"></path><path id="kity_path_43" fill="none" stroke="rgb(115, 161, 191)" stroke-width="1" d="M349.5,136.5V338.5L369.5,338.5"></path><path id="kity_path_45" fill="none" stroke="rgb(115, 161, 191)" stroke-width="1" d="M349.5,136.5V390.5L369.5,390.5"></path><path id="kity_path_47" fill="none" stroke="rgb(115, 161, 191)" stroke-width="1" d="M389.5,401.5V442.5L409.5,442.5"></path><path id="kity_path_49" fill="none" stroke="rgb(115, 161, 191)" stroke-width="1" d="M389.5,401.5V494.5L409.5,494.5"></path><path id="kity_path_51" fill="none" stroke="rgb(115, 161, 191)" stroke-width="1" d="M389.5,401.5V546.5L409.5,546.5"></path><path id="kity_path_53" fill="none" stroke="rgb(115, 161, 191)" stroke-width="1" d="M389.5,401.5V598.5L409.5,598.5"></path><path id="kity_path_55" fill="none" stroke="rgb(115, 161, 191)" stroke-width="1" d="M389.5,401.5V650.5L409.5,650.5"></path><path id="kity_path_57" fill="none" stroke="rgb(115, 161, 191)" stroke-width="1" d="M389.5,401.5V702.5L409.5,702.5"></path><path id="kity_path_59" fill="none" stroke="rgb(115, 161, 191)" stroke-width="1" d="M389.5,401.5V754.5L409.5,754.5"></path><path id="kity_path_61" fill="none" stroke="rgb(115, 161, 191)" stroke-width="1" d="M389.5,401.5V806.5L409.5,806.5"></path><path id="kity_path_63" fill="none" stroke="rgb(115, 161, 191)" stroke-width="1" d="M389.5,401.5V858.5L409.5,858.5"></path><path id="kity_path_65" fill="none" stroke="rgb(115, 161, 191)" stroke-width="1" d="M389.5,401.5V910.5L409.5,910.5"></path><path id="kity_path_67" fill="none" stroke="rgb(115, 161, 191)" stroke-width="1" d="M389.5,401.5V962.5L409.5,962.5"></path><path id="kity_path_69" fill="none" stroke="rgb(115, 161, 191)" stroke-width="1" d="M389.5,401.5V1014.5L409.5,1014.5"></path></g><g id="minder_node1"><path id="node_outline1" fill="rgb(115, 161, 191)" stroke="rgb(115, 161, 191)" d="M201.5,20.5h59a5,5,0,0,1,5,5v30a5,5,0,0,1,-5,5h-59a5,5,0,0,1,-5,-5v-30a5,5,0,0,1,5,-5z" stroke-width="3"></path><g id="node_text1" fill="white"><text id="kity_text_22" text-rendering="inherit" font-size="16" dy=".8em" y="30.09999990463257" x="220.5">fm</text></g></g><g id="kity_g_12"><path id="kity_path_13" fill="none" stroke="none" d="M220.5,40.5h0v0h0z"></path></g><g id="kity_g_14"><path id="kity_path_15" fill="none" stroke="none" d="M220.5,40.5h0v0h0z"></path><path id="kity_path_16" fill="none" stroke="none"></path></g><g id="minder_node2"><g id="node_expander1" display="none" style="cursor: pointer;"><path id="kity_path_131" fill="white" stroke="gray" d="M92.5,103.5A6,6,0,1,1,80.5,103.5A6,6,0,1,1,92.5,103.5"></path><path id="kity_path_132" fill="none" stroke="gray"></path></g><path id="node_outline2" fill="rgb(238, 243, 246)" stroke="rgb(115, 161, 191)" d="M23.5,110.5h126a3,3,0,0,1,3,3v20a3,3,0,0,1,-3,3h-126a3,3,0,0,1,-3,-3v-20a3,3,0,0,1,3,-3z" stroke-width="1"></path><g id="node_text2" fill="black"><text id="kity_text_71" text-rendering="inherit" font-size="14" dy=".8em" y="114.40000009536743" x="40.5">企业注册-com</text></g></g><g id="minder_node3"><g id="node_expander2" display="none" style="cursor: pointer;"><path id="kity_path_134" fill="white" stroke="gray" d="M247,103.5A6,6,0,1,1,235,103.5A6,6,0,1,1,247,103.5"></path><path id="kity_path_135" fill="none" stroke="gray"></path></g><path id="node_outline3" fill="rgb(238, 243, 246)" stroke="rgb(115, 161, 191)" d="M195.5,110.5h91a3,3,0,0,1,3,3v20a3,3,0,0,1,-3,3h-91a3,3,0,0,1,-3,-3v-20a3,3,0,0,1,3,-3z" stroke-width="1"></path><g id="node_text3" fill="black"><text id="kity_text_73" text-rendering="inherit" font-size="14" dy=".8em" y="114.40000009536743" x="212.5">登录-log</text></g></g><g id="minder_node4"><g id="node_expander20" style="cursor: pointer;"><path id="kity_path_188" fill="white" stroke="gray" d="M392,103.5A6,6,0,1,1,380,103.5A6,6,0,1,1,392,103.5"></path><path id="kity_path_189" fill="none" stroke="gray" d="M381.5,103.5L390.5,103.5"></path></g><path id="node_outline21" fill="rgb(238, 243, 246)" stroke="rgb(115, 161, 191)" d="M332.5,110.5h107a3,3,0,0,1,3,3v20a3,3,0,0,1,-3,3h-107a3,3,0,0,1,-3,-3v-20a3,3,0,0,1,3,-3z" stroke-width="1"></path><g id="node_text21" fill="black"><text id="kity_text_109" text-rendering="inherit" font-size="14" dy=".8em" y="114.40000009536743" x="349.5">主系统-mai</text></g></g><g id="minder_node5"><g id="node_expander3" display="none" style="cursor: pointer;"><path id="kity_path_137" fill="white" stroke="gray" d="M369.5,182.5A6,6,0,1,1,357.5,182.5A6,6,0,1,1,369.5,182.5"></path><path id="kity_path_138" fill="none" stroke="gray"></path></g><path id="node_outline4" fill="none" stroke="none" d="M374.5,171.5h73a5,5,0,0,1,5,5v12a5,5,0,0,1,-5,5h-73a5,5,0,0,1,-5,-5v-12a5,5,0,0,1,5,-5z"></path><g id="node_text4" fill="black"><text id="kity_text_75" text-rendering="inherit" font-size="12" dy=".8em" y="174.70000004768372" x="379.5">工作台-wor</text></g></g><g id="minder_node6"><g id="node_expander4" display="none" style="cursor: pointer;"><path id="kity_path_140" fill="white" stroke="gray" d="M369.5,234.5A6,6,0,1,1,357.5,234.5A6,6,0,1,1,369.5,234.5"></path><path id="kity_path_141" fill="none" stroke="gray"></path></g><path id="node_outline5" fill="none" stroke="none" d="M374.5,223.5h53a5,5,0,0,1,5,5v12a5,5,0,0,1,-5,5h-53a5,5,0,0,1,-5,-5v-12a5,5,0,0,1,5,-5z"></path><g id="node_text5" fill="black"><text id="kity_text_77" text-rendering="inherit" font-size="12" dy=".8em" y="226.70000004768372" x="379.5">客户-cli</text></g></g><g id="minder_node7"><g id="node_expander5" display="none" style="cursor: pointer;"><path id="kity_path_143" fill="white" stroke="gray" d="M369.5,286.5A6,6,0,1,1,357.5,286.5A6,6,0,1,1,369.5,286.5"></path><path id="kity_path_144" fill="none" stroke="gray"></path></g><path id="node_outline6" fill="none" stroke="none" d="M374.5,275.5h60a5,5,0,0,1,5,5v12a5,5,0,0,1,-5,5h-60a5,5,0,0,1,-5,-5v-12a5,5,0,0,1,5,-5z"></path><g id="node_text6" fill="black"><text id="kity_text_79" text-rendering="inherit" font-size="12" dy=".8em" y="278.7000000476837" x="379.5">下属-sub</text></g></g><g id="minder_node8"><g id="node_expander6" display="none" style="cursor: pointer;"><path id="kity_path_146" fill="white" stroke="gray" d="M369.5,338.5A6,6,0,1,1,357.5,338.5A6,6,0,1,1,369.5,338.5"></path><path id="kity_path_147" fill="none" stroke="gray"></path></g><path id="node_outline7" fill="none" stroke="none" d="M374.5,327.5h60a5,5,0,0,1,5,5v12a5,5,0,0,1,-5,5h-60a5,5,0,0,1,-5,-5v-12a5,5,0,0,1,5,-5z"></path><g id="node_text7" fill="black"><text id="kity_text_81" text-rendering="inherit" font-size="12" dy=".8em" y="330.7000000476837" x="379.5">邮件-mai</text></g></g><g id="minder_node9"><g id="node_expander19" style="cursor: pointer;"><path id="kity_path_185" fill="white" stroke="gray" d="M369.5,390.5A6,6,0,1,1,357.5,390.5A6,6,0,1,1,369.5,390.5"></path><path id="kity_path_186" fill="none" stroke="gray" d="M359,390.5L368,390.5"></path></g><path id="node_outline20" fill="none" stroke="none" d="M374.5,379.5h81a5,5,0,0,1,5,5v12a5,5,0,0,1,-5,5h-81a5,5,0,0,1,-5,-5v-12a5,5,0,0,1,5,-5z"></path><g id="node_text20" fill="black"><text id="kity_text_107" text-rendering="inherit" font-size="12" dy=".8em" y="382.7000000476837" x="379.5">系统设置-sys</text></g></g><g id="minder_node10"><g id="node_expander7" display="none" style="cursor: pointer;"><path id="kity_path_149" fill="white" stroke="gray" d="M409.5,442.5A6,6,0,1,1,397.5,442.5A6,6,0,1,1,409.5,442.5"></path><path id="kity_path_150" fill="none" stroke="gray"></path></g><path id="node_outline8" fill="none" stroke="none" d="M414.5,431.5h83a5,5,0,0,1,5,5v12a5,5,0,0,1,-5,5h-83a5,5,0,0,1,-5,-5v-12a5,5,0,0,1,5,-5z"></path><g id="node_text8" fill="black"><text id="kity_text_83" text-rendering="inherit" font-size="12" dy=".8em" y="434.7000000476837" x="419.5">企业设置-ent</text></g></g><g id="minder_node11"><g id="node_expander8" display="none" style="cursor: pointer;"><path id="kity_path_152" fill="white" stroke="gray" d="M409.5,494.5A6,6,0,1,1,397.5,494.5A6,6,0,1,1,409.5,494.5"></path><path id="kity_path_153" fill="none" stroke="gray"></path></g><path id="node_outline9" fill="none" stroke="none" d="M414.5,483.5h81a5,5,0,0,1,5,5v12a5,5,0,0,1,-5,5h-81a5,5,0,0,1,-5,-5v-12a5,5,0,0,1,5,-5z"></path><g id="node_text9" fill="black"><text id="kity_text_85" text-rendering="inherit" font-size="12" dy=".8em" y="486.7000000476837" x="419.5">系统参数-sys</text></g></g><g id="minder_node12"><g id="node_expander9" display="none" style="cursor: pointer;"><path id="kity_path_155" fill="white" stroke="gray" d="M409.5,546.5A6,6,0,1,1,397.5,546.5A6,6,0,1,1,409.5,546.5"></path><path id="kity_path_156" fill="none" stroke="gray"></path></g><path id="node_outline10" fill="none" stroke="none" d="M414.5,535.5h84a5,5,0,0,1,5,5v12a5,5,0,0,1,-5,5h-84a5,5,0,0,1,-5,-5v-12a5,5,0,0,1,5,-5z"></path><g id="node_text10" fill="black"><text id="kity_text_87" text-rendering="inherit" font-size="12" dy=".8em" y="538.7000000476837" x="419.5">个人资料-per</text></g></g><g id="minder_node13"><g id="node_expander10" display="none" style="cursor: pointer;"><path id="kity_path_158" fill="white" stroke="gray" d="M409.5,598.5A6,6,0,1,1,397.5,598.5A6,6,0,1,1,409.5,598.5"></path><path id="kity_path_159" fill="none" stroke="gray"></path></g><path id="node_outline11" fill="none" stroke="none" d="M414.5,587.5h83a5,5,0,0,1,5,5v12a5,5,0,0,1,-5,5h-83a5,5,0,0,1,-5,-5v-12a5,5,0,0,1,5,-5z"></path><g id="node_text11" fill="black"><text id="kity_text_89" text-rendering="inherit" font-size="12" dy=".8em" y="590.7000000476837" x="419.5">账号设置-acc</text></g></g><g id="minder_node14"><g id="node_expander11" display="none" style="cursor: pointer;"><path id="kity_path_161" fill="white" stroke="gray" d="M409.5,650.5A6,6,0,1,1,397.5,650.5A6,6,0,1,1,409.5,650.5"></path><path id="kity_path_162" fill="none" stroke="gray"></path></g><path id="node_outline12" fill="none" stroke="none" d="M414.5,639.5h86a5,5,0,0,1,5,5v12a5,5,0,0,1,-5,5h-86a5,5,0,0,1,-5,-5v-12a5,5,0,0,1,5,-5z"></path><g id="node_text12" fill="black"><text id="kity_text_91" text-rendering="inherit" font-size="12" dy=".8em" y="642.7000000476837" x="419.5">应用中心-app</text></g></g><g id="minder_node15"><g id="node_expander12" display="none" style="cursor: pointer;"><path id="kity_path_164" fill="white" stroke="gray" d="M409.5,702.5A6,6,0,1,1,397.5,702.5A6,6,0,1,1,409.5,702.5"></path><path id="kity_path_165" fill="none" stroke="gray"></path></g><path id="node_outline13" fill="none" stroke="none" d="M414.5,691.5h83a5,5,0,0,1,5,5v12a5,5,0,0,1,-5,5h-83a5,5,0,0,1,-5,-5v-12a5,5,0,0,1,5,-5z"></path><g id="node_text13" fill="black"><text id="kity_text_93" text-rendering="inherit" font-size="12" dy=".8em" y="694.7000000476837" x="419.5">组织架构-gro</text></g></g><g id="minder_node16"><g id="node_expander13" display="none" style="cursor: pointer;"><path id="kity_path_167" fill="white" stroke="gray" d="M409.5,754.5A6,6,0,1,1,397.5,754.5A6,6,0,1,1,409.5,754.5"></path><path id="kity_path_168" fill="none" stroke="gray"></path></g><path id="node_outline14" fill="none" stroke="none" d="M414.5,743.5h116a5,5,0,0,1,5,5v12a5,5,0,0,1,-5,5h-116a5,5,0,0,1,-5,-5v-12a5,5,0,0,1,5,-5z"></path><g id="node_text14" fill="black"><text id="kity_text_95" text-rendering="inherit" font-size="12" dy=".8em" y="746.7000000476837" x="419.5">角色和权限管理-rol</text></g></g><g id="minder_node17"><g id="node_expander14" display="none" style="cursor: pointer;"><path id="kity_path_170" fill="white" stroke="gray" d="M409.5,806.5A6,6,0,1,1,397.5,806.5A6,6,0,1,1,409.5,806.5"></path><path id="kity_path_171" fill="none" stroke="gray"></path></g><path id="node_outline15" fill="none" stroke="none" d="M414.5,795.5h94a5,5,0,0,1,5,5v12a5,5,0,0,1,-5,5h-94a5,5,0,0,1,-5,-5v-12a5,5,0,0,1,5,-5z"></path><g id="node_text15" fill="black"><text id="kity_text_97" text-rendering="inherit" font-size="12" dy=".8em" y="798.7000000476837" x="419.5">日志和行为-log</text></g></g><g id="minder_node18"><g id="node_expander15" display="none" style="cursor: pointer;"><path id="kity_path_173" fill="white" stroke="gray" d="M409.5,858.5A6,6,0,1,1,397.5,858.5A6,6,0,1,1,409.5,858.5"></path><path id="kity_path_174" fill="none" stroke="gray"></path></g><path id="node_outline16" fill="none" stroke="none" d="M414.5,847.5h105a5,5,0,0,1,5,5v12a5,5,0,0,1,-5,5h-105a5,5,0,0,1,-5,-5v-12a5,5,0,0,1,5,-5z"></path><g id="node_text16" fill="black"><text id="kity_text_99" text-rendering="inherit" font-size="12" dy=".8em" y="850.7000000476837" x="419.5">业务字段配置-biz</text></g></g><g id="minder_node19"><g id="node_expander16" display="none" style="cursor: pointer;"><path id="kity_path_176" fill="white" stroke="gray" d="M409.5,910.5A6,6,0,1,1,397.5,910.5A6,6,0,1,1,409.5,910.5"></path><path id="kity_path_177" fill="none" stroke="gray"></path></g><path id="node_outline17" fill="none" stroke="none" d="M414.5,899.5h89a5,5,0,0,1,5,5v12a5,5,0,0,1,-5,5h-89a5,5,0,0,1,-5,-5v-12a5,5,0,0,1,5,-5z"></path><g id="node_text17" fill="black"><text id="kity_text_101" text-rendering="inherit" font-size="12" dy=".8em" y="902.7000000476837" x="419.5">业务字典-bizd</text></g></g><g id="minder_node20"><g id="node_expander17" display="none" style="cursor: pointer;"><path id="kity_path_179" fill="white" stroke="gray" d="M409.5,962.5A6,6,0,1,1,397.5,962.5A6,6,0,1,1,409.5,962.5"></path><path id="kity_path_180" fill="none" stroke="gray"></path></g><path id="node_outline18" fill="none" stroke="none" d="M414.5,951.5h82a5,5,0,0,1,5,5v12a5,5,0,0,1,-5,5h-82a5,5,0,0,1,-5,-5v-12a5,5,0,0,1,5,-5z"></path><g id="node_text18" fill="black"><text id="kity_text_103" text-rendering="inherit" font-size="12" dy=".8em" y="954.7000000476837" x="419.5">公海设置-hig</text></g></g><g id="minder_node21"><g id="node_expander18" display="none" style="cursor: pointer;"><path id="kity_path_182" fill="white" stroke="gray" d="M409.5,1014.5A6,6,0,1,1,397.5,1014.5A6,6,0,1,1,409.5,1014.5"></path><path id="kity_path_183" fill="none" stroke="gray"></path></g><path id="node_outline19" fill="none" stroke="none" d="M414.5,1003.5h94a5,5,0,0,1,5,5v12a5,5,0,0,1,-5,5h-94a5,5,0,0,1,-5,-5v-12a5,5,0,0,1,5,-5z"></path><g id="node_text19" fill="black"><text id="kity_text_105" text-rendering="inherit" font-size="12" dy=".8em" y="1006.7000000476837" x="419.5">日程和提醒-sch</text></g></g></g></g></svg>