<svg width="1100" height="92" xmlns="http://www.w3.org/2000/svg">
 <style type="text/css">.st0{fill:#E1E3E7;}
	.st1{fill:#30D8A2;}</style>

 <g>
  <title>background</title>
  <rect fill="none" id="canvas_background" height="94" width="1102" y="-1" x="-1"/>
 </g>
 <g>
  <title>Layer 1</title>
  <g id="svg_1">
   <path id="svg_2" d="m39.8,1l-35.6,0c-1.8,0 -3.2,1.4 -3.2,3.1l0,28.7c0,1.8 1.4,3.2 3.2,3.2l35.7,0c1.7,0 3.2,-1.4 3.2,-3.2l0,-28.7c-0.1,-1.7 -1.5,-3.1 -3.3,-3.1zm1.1,31.8c0,0.6 -0.5,1 -1,1l-35.7,0c-0.6,0 -1,-0.5 -1,-1l0,-28.6c0,-0.6 0.5,-1 1,-1l35.7,0c0.6,0 1,0.5 1,1l0,28.6z" class="st0"/>
   <path id="svg_3" d="m37.4,7.5c-0.1,0 -15.3,0.7 -20,3.2c-4.2,2.3 -6.3,6.8 -5.7,12.6l-6.3,3.8c-0.5,0.3 -0.7,1 -0.4,1.4c0.2,0.3 0.5,0.5 0.9,0.5c0.2,0 0.4,0 0.5,-0.2l6.2,-3.8c1.4,0.9 5.3,3.4 9.2,3.4l0,0c1.9,0 3.5,-0.5 4.8,-1.6c8.8,-7 11.6,-17.7 11.7,-18.2c0.1,-0.3 0,-0.7 -0.2,-0.9c-0.1,0 -0.4,-0.2 -0.7,-0.2zm-7.8,6.2l0,-0.6c0,-0.6 -0.5,-1.1 -1.1,-1.1c-0.6,0 -1.1,0.5 -1.1,1.1l0,1.9l-3,1.8l0,-2.8c0,-0.6 -0.5,-1.1 -1.1,-1.1c-0.6,0 -1.1,0.5 -1.1,1.1l0,4.1l-2.7,1.6l0,-2.4c0,-0.6 -0.5,-1.1 -1.1,-1.1c-0.6,0 -1.1,0.5 -1.1,1.1l0,3.7l-3.9,2.4c-0.3,-3.2 0,-8.3 4.6,-10.8c3.7,-1.8 14,-2.6 17.9,-2.9c-1.4,0.9 -6.3,4 -6.3,4z" class="st0"/>
  </g>
  <g id="svg_4">
   <path id="svg_5" d="m101.8,22.9l-35.6,0c-1.7,0 -3.2,1.4 -3.2,3.2l0,6.8c0,1.7 1.4,3.2 3.2,3.2l35.7,0c1.7,0 3.2,-1.4 3.2,-3.2l0,-6.9c-0.1,-1.7 -1.5,-3.1 -3.3,-3.1zm-14,7.6l-3.1,0l0,3.1l-1.4,0l0,-3.1l-3.1,0l0,-1.5l3.1,0l0,-3.1l1.4,0l0,3.1l3.1,0l0,1.5z" class="st0"/>
   <path id="svg_6" d="m101.8,1l-13.3,0c-1.7,0 -3.2,1.4 -3.2,3.2l0,13.4c0,1.7 1.4,3.2 3.2,3.2l13.4,0c1.7,0 3.2,-1.4 3.2,-3.2l0,-13.4c-0.1,-1.8 -1.5,-3.2 -3.3,-3.2zm1.1,16.5c0,0.6 -0.5,1.1 -1.1,1.1l-13.3,0c-0.6,0 -1.1,-0.5 -1.1,-1.1l0,-13.3c0,-0.6 0.5,-1.1 1.1,-1.1l13.4,0c0.6,0 1.1,0.5 1.1,1.1l0,13.3l-0.1,0z" class="st0"/>
   <path id="svg_7" d="m99.6,6.1c0,0 -4.8,1 -6.3,2.2c-1.3,1 -1.8,2.6 -1.5,4.4l-1.8,1.6c-0.4,0.4 -0.5,1 -0.1,1.5c0.2,0.2 0.5,0.4 0.8,0.4c0.2,0 0.5,-0.1 0.7,-0.3l1.7,-1.5c0.5,0.2 1.4,0.4 2.4,0.4l0,0c1.9,0 2.8,-0.9 3.2,-1.6c1.7,-3 2.2,-5.7 2.2,-5.8c0.1,-0.3 0,-0.7 -0.3,-0.9c-0.3,-0.3 -0.7,-0.4 -1,-0.4zm-5.8,6.2c-0.1,-0.8 -0.1,-1.7 0.7,-2.3c0.5,-0.4 2,-0.9 3.3,-1.3l-4,3.6z" class="st0"/>
   <path id="svg_8" d="m66.2,20.7l13.4,0c1.7,0 3.2,-1.4 3.2,-3.2l0,-13.3c0,-1.7 -1.4,-3.2 -3.2,-3.2l-13.4,0c-1.8,0 -3.2,1.4 -3.2,3.2l0,13.4c0,1.7 1.4,3.1 3.2,3.1zm-1.1,-16.5c0,-0.6 0.5,-1.1 1.1,-1.1l13.4,0c0.6,0 1.1,0.5 1.1,1.1l0,13.4c0,0.6 -0.5,1.1 -1.1,1.1l-13.4,0c-0.6,0 -1.1,-0.5 -1.1,-1.1l0,-13.4z" class="st0"/>
   <path id="svg_9" d="m68.3,16.2c0.2,0 0.5,-0.1 0.7,-0.3l1.7,-1.5c0.5,0.2 1.4,0.4 2.4,0.4l0,0c1.9,0 2.8,-0.9 3.2,-1.6c1.7,-3 2.2,-5.7 2.2,-5.8c0.1,-0.3 0,-0.7 -0.3,-0.9c-0.2,-0.2 -0.6,-0.4 -0.9,-0.3c0,0 -4.8,1 -6.3,2.2c-1.3,1 -1.8,2.6 -1.5,4.4l-1.8,1.6c-0.4,0.4 -0.5,1 -0.1,1.5c0.1,0.2 0.4,0.3 0.7,0.3zm3.9,-6.2c0.5,-0.4 2,-0.9 3.3,-1.3l-4.1,3.6c0,-0.8 0.1,-1.7 0.8,-2.3z" class="st0"/>
  </g>
  <g id="svg_10">
   <path id="svg_11" d="m163.8,1l-35.7,0c-1.7,0 -3.2,1.4 -3.2,3.1l0,28.7c0,1.7 1.4,3.2 3.2,3.2l35.7,0c1.7,0 3.2,-1.4 3.2,-3.2l0,-28.7c0,-1.7 -1.4,-3.1 -3.2,-3.1zm1.1,31.8c0,0.6 -0.5,1.1 -1.1,1.1l-35.7,0c-0.6,0 -1.1,-0.5 -1.1,-1.1l0,-28.6c0,-0.6 0.5,-1.1 1.1,-1.1l35.7,0c0.6,0 1.1,0.5 1.1,1.1l0,28.6z" class="st0"/>
   <path id="svg_12" d="m132.3,23.2l27.3,0c1.7,0 3.2,-1.4 3.2,-3.1l0,-11.7c0,-1.7 -1.4,-3.2 -3.2,-3.2l-27.3,0c-1.7,0 -3.2,1.4 -3.2,3.2l0,11.7c0.1,1.7 1.5,3.1 3.2,3.1zm-1,-14.8c0,-0.6 0.5,-1.1 1.1,-1.1l27.3,0c0.6,0 1.1,0.5 1.1,1.1l0,11.7c0,0.6 -0.5,1.1 -1.1,1.1l-27.3,0c-0.6,0 -1.1,-0.5 -1.1,-1.1l0,-11.7z" class="st0"/>
   <path id="svg_13" d="m137,17.1c0.1,0 0.2,0 0.3,0l3.7,-1c0.8,0.8 3.2,2.9 5.7,2.9l0,0c0.8,0 1.6,-0.2 2.3,-0.7c4.2,-2.9 6.7,-6.3 6.8,-6.4c0.2,-0.3 0.3,-0.6 0.2,-1c-0.1,-0.3 -0.4,-0.6 -0.7,-0.7c0,0 -5.4,-1.3 -8.6,-1.3c-0.6,0 -1,0 -1.4,0.1c-2.3,0.5 -4,2.3 -4.6,5l-3.9,1.1c-0.6,0.2 -0.9,0.7 -0.7,1.3c0.1,0.4 0.5,0.7 0.9,0.7zm8.7,-6c0.2,0 0.4,-0.1 0.9,-0.1c1.7,0 4.3,0.5 6.1,0.8l-2.7,0.7c-0.1,-0.4 -0.5,-0.7 -1,-0.7c-0.6,0 -1.1,0.5 -1.1,1.1l0,0.2l-1.4,0.4l0,-0.5c0,-0.6 -0.5,-1.1 -1.1,-1.1c-0.6,0 -1.1,0.5 -1.1,1.1l0,1l-1.8,0.5c0.5,-1.3 1.3,-3 3.2,-3.4z" class="st0"/>
   <path id="svg_14" d="m161.8,25.4l-31.5,0c-0.6,0 -1.1,0.5 -1.1,1.1s0.5,1.1 1.1,1.1l31.5,0c0.6,0 1.1,-0.5 1.1,-1.1s-0.5,-1.1 -1.1,-1.1z" class="st0"/>
   <path id="svg_15" d="m161.8,29.7l-31.5,0c-0.6,0 -1.1,0.5 -1.1,1.1c0,0.6 0.5,1.1 1.1,1.1l31.5,0c0.6,0 1.1,-0.5 1.1,-1.1c-0.1,-0.7 -0.5,-1.1 -1.1,-1.1z" class="st0"/>
  </g>
  <g id="svg_16">
   <path id="svg_17" d="m349.8,1l-35.7,0c-1.7,0 -3.2,1.4 -3.2,3.1l0,28.7c0,1.7 1.4,3.2 3.2,3.2l35.7,0c1.7,0 3.2,-1.4 3.2,-3.2l0,-28.7c0,-1.7 -1.4,-3.1 -3.2,-3.1zm1.1,31.8c0,0.6 -0.5,1.1 -1.1,1.1l-35.7,0c-0.6,0 -1.1,-0.5 -1.1,-1.1l0,-28.6c0,-0.6 0.5,-1.1 1.1,-1.1l35.7,0c0.6,0 1.1,0.5 1.1,1.1l0,28.6z" class="st0"/>
   <path id="svg_18" d="m337.4,17.3l-7.2,-5c-0.3,-0.2 -0.7,-0.3 -1.1,-0.1c-0.3,0.2 -0.6,0.5 -0.6,0.9l0,10.6c0,0.4 0.2,0.8 0.6,0.9c0.1,0.1 0.3,0.1 0.5,0.1c0.2,0 0.5,-0.1 0.7,-0.2l7.2,-5.6c0.3,-0.2 0.4,-0.5 0.4,-0.9c-0.1,-0.2 -0.3,-0.5 -0.5,-0.7z" class="st0"/>
  </g>
  <g id="svg_19">
   <path id="svg_20" d="m188.1,3.1l39.9,0c0.6,0 1.1,-0.5 1.1,-1.1s-0.6,-1 -1.2,-1l-39.9,0c-0.6,0 -1.1,0.5 -1.1,1.1s0.6,1 1.2,1z" class="st0"/>
   <path id="svg_21" d="m227.9,5.7l-39.9,0c-0.6,0 -1.1,0.5 -1.1,1.1s0.5,1.1 1.1,1.1l39.9,0c0.6,0 1.1,-0.5 1.1,-1.1s-0.5,-1.1 -1.1,-1.1z" class="st0"/>
   <path id="svg_22" d="m227.9,10.4l-39.9,0c-0.6,0 -1.1,0.5 -1.1,1.1c0,0.6 0.5,1.1 1.1,1.1l39.9,0c0.6,0 1.1,-0.5 1.1,-1.1c0,-0.6 -0.5,-1.1 -1.1,-1.1z" class="st0"/>
   <path id="svg_23" d="m227.9,15.1l-39.9,0c-0.6,0 -1.1,0.5 -1.1,1.1c0,0.6 0.5,1.1 1.1,1.1l39.9,0c0.6,0 1.1,-0.5 1.1,-1.1c0,-0.6 -0.5,-1.1 -1.1,-1.1z" class="st0"/>
   <path id="svg_24" d="m227.9,19.8l-39.9,0c-0.6,0 -1.1,0.5 -1.1,1.1s0.5,1.1 1.1,1.1l39.9,0c0.6,0 1.1,-0.5 1.1,-1.1s-0.5,-1.1 -1.1,-1.1z" class="st0"/>
   <path id="svg_25" d="m227.9,24.5l-39.9,0c-0.6,0 -1.1,0.5 -1.1,1.1s0.5,1.1 1.1,1.1l39.9,0c0.6,0 1.1,-0.5 1.1,-1.1s-0.5,-1.1 -1.1,-1.1z" class="st0"/>
   <path id="svg_26" d="m227.9,29.2l-39.9,0c-0.6,0 -1.1,0.5 -1.1,1.1c0,0.6 0.5,1.1 1.1,1.1l39.9,0c0.6,0 1.1,-0.5 1.1,-1.1c0,-0.6 -0.5,-1.1 -1.1,-1.1z" class="st0"/>
   <path id="svg_27" d="m208.1,33.9l-20.1,0c-0.6,0 -1.1,0.5 -1.1,1.1s0.5,1.1 1.1,1.1l20.1,0c0.6,0 1.1,-0.5 1.1,-1.1s-0.5,-1.1 -1.1,-1.1z" class="st0"/>
  </g>
  <g id="svg_28">
   <path id="svg_29" d="m451.4,1l-13.3,0c-1.7,0 -3.1,1.4 -3.1,3.1l0,20.6c0,1.7 1.4,3.1 3.1,3.1l13.3,0c1.7,0 3.1,-1.4 3.1,-3.1l0,-20.6c0,-1.7 -1.4,-3.1 -3.1,-3.1zm-6.1,11.9l0.3,0l-0.2,0.4l-1.3,0c-0.6,0 -1,0.5 -1,1c0,0.6 0.5,1 1,1l0.5,0l-0.2,0.6l-1.4,0c-0.6,0 -1,0.5 -1,1s0.5,1 1,1l0.5,0l-0.9,2.2c-1.3,-1.8 -1.7,-5 -0.7,-7c0.5,-1.1 2.6,-2.9 5.5,-4.9l-1,2.5l-1.2,0c-0.6,0 -1,0.5 -1,1s0.5,1.2 1.1,1.2zm7.1,11.8c0,0.6 -0.5,1 -1,1l-9.9,0l1.4,-3.4c2.9,-0.2 7.3,-1.9 7.3,-6.8c0,-5.8 -1.1,-9.1 -1.1,-9.2c-0.1,-0.3 -0.3,-0.5 -0.7,-0.6c-0.3,-0.1 -0.6,-0.1 -0.9,0.1l-0.1,0.1c-2.8,1.8 -6.3,4.4 -7.3,6.4c-1.3,2.7 -0.8,6.8 1,9.1l-1.6,3.9c0,0.1 -0.1,0.2 -0.1,0.3l-1.2,0c-0.6,0 -1,-0.5 -1,-1l0,-20.5c0,-0.6 0.5,-1 1,-1l13.3,0c0.6,0 1,0.5 1,1l0,20.6l-0.1,0z" class="st0"/>
   <path id="svg_30" d="m458.6,3.1l17.4,0c0.6,0 1.1,-0.5 1.1,-1.1s-0.6,-1 -1.2,-1l-17.4,0c-0.6,0 -1.1,0.5 -1.1,1.1s0.6,1 1.2,1z" class="st0"/>
   <path id="svg_31" d="m475.9,5.1l-17.4,0c-0.6,0 -1.1,0.5 -1.1,1.1s0.5,1.1 1.1,1.1l17.4,0c0.6,0 1.1,-0.5 1.1,-1.1s-0.5,-1.1 -1.1,-1.1z" class="st0"/>
   <path id="svg_32" d="m475.9,9.2l-17.4,0c-0.6,0 -1.1,0.5 -1.1,1.1s0.5,1.1 1.1,1.1l17.4,0c0.6,0 1.1,-0.5 1.1,-1.1s-0.5,-1.1 -1.1,-1.1z" class="st0"/>
   <path id="svg_33" d="m475.9,13.3l-17.4,0c-0.6,0 -1.1,0.5 -1.1,1.1s0.5,1.1 1.1,1.1l17.4,0c0.6,0 1.1,-0.5 1.1,-1.1s-0.5,-1.1 -1.1,-1.1z" class="st0"/>
   <path id="svg_34" d="m475.9,17.4l-17.4,0c-0.6,0 -1.1,0.5 -1.1,1.1s0.5,1.1 1.1,1.1l17.4,0c0.6,0 1.1,-0.5 1.1,-1.1s-0.5,-1.1 -1.1,-1.1z" class="st0"/>
   <path id="svg_35" d="m475.9,21.6l-17.4,0c-0.6,0 -1.1,0.5 -1.1,1.1s0.5,1.1 1.1,1.1l17.4,0c0.6,0 1.1,-0.5 1.1,-1.1s-0.5,-1.1 -1.1,-1.1z" class="st0"/>
   <path id="svg_36" d="m475.9,25.7l-17.4,0c-0.6,0 -1.1,0.5 -1.1,1.1s0.5,1.1 1.1,1.1l17.4,0c0.6,0 1.1,-0.5 1.1,-1.1s-0.5,-1.1 -1.1,-1.1z" class="st0"/>
   <path id="svg_37" d="m475.9,29.8l-17.4,0c-0.6,0 -1.1,0.5 -1.1,1.1s0.5,1.1 1.1,1.1l17.4,0c0.6,0 1.1,-0.5 1.1,-1.1s-0.5,-1.1 -1.1,-1.1z" class="st0"/>
   <path id="svg_38" d="m471.1,33.9l-12.6,0c-0.6,0 -1.1,0.5 -1.1,1.1c0,0.6 0.5,1.1 1.1,1.1l12.6,0c0.6,0 1.1,-0.5 1.1,-1.1c0,-0.6 -0.5,-1.1 -1.1,-1.1z" class="st0"/>
  </g>
  <g id="svg_39">
   <path id="svg_40" d="m535.9,1l-13.3,0c-1.7,0 -3.1,1.4 -3.1,3.1l0,20.6c0,1.7 1.4,3.1 3.1,3.1l13.3,0c1.7,0 3.1,-1.4 3.1,-3.1l0,-20.6c0,-1.7 -1.4,-3.1 -3.1,-3.1zm-6.1,11.9l0.3,0l-0.2,0.4l-1.3,0c-0.6,0 -1,0.5 -1,1c0,0.6 0.5,1 1,1l0.5,0l-0.2,0.6l-1.4,0c-0.6,0 -1,0.5 -1,1s0.5,1 1,1l0.5,0l-0.9,2.2c-1.3,-1.8 -1.7,-5 -0.7,-7c0.5,-1.1 2.6,-2.9 5.5,-4.9l-1,2.5l-1.2,0c-0.6,0 -1,0.5 -1,1s0.5,1.2 1.1,1.2zm7.1,11.8c0,0.6 -0.5,1 -1,1l-9.9,0l1.4,-3.4c2.9,-0.2 7.3,-1.9 7.3,-6.8c0,-5.8 -1.1,-9.1 -1.1,-9.2c-0.1,-0.3 -0.3,-0.5 -0.7,-0.6c-0.3,-0.1 -0.6,-0.1 -0.9,0.1l-0.1,0.1c-2.8,1.8 -6.3,4.4 -7.3,6.4c-1.3,2.7 -0.8,6.8 1,9.1l-1.6,3.9c0,0.1 -0.1,0.2 -0.1,0.3l-1.2,0c-0.6,0 -1,-0.5 -1,-1l0,-20.5c0,-0.6 0.5,-1 1,-1l13.3,0c0.6,0 1,0.5 1,1l0,20.6l-0.1,0z" class="st0"/>
   <path id="svg_41" d="m515.4,1l-17.4,0c-0.6,0 -1.1,0.5 -1.1,1.1s0.5,1.1 1.1,1.1l17.4,0c0.6,0 1.1,-0.5 1.1,-1.1s-0.5,-1.1 -1.1,-1.1z" class="st0"/>
   <path id="svg_42" d="m515.4,5.1l-17.4,0c-0.6,0 -1.1,0.5 -1.1,1.1s0.5,1.1 1.1,1.1l17.4,0c0.6,0 1.1,-0.5 1.1,-1.1s-0.5,-1.1 -1.1,-1.1z" class="st0"/>
   <path id="svg_43" d="m515.4,9.2l-17.4,0c-0.6,0 -1.1,0.5 -1.1,1.1s0.5,1.1 1.1,1.1l17.4,0c0.6,0 1.1,-0.5 1.1,-1.1s-0.5,-1.1 -1.1,-1.1z" class="st0"/>
   <path id="svg_44" d="m515.4,13.3l-17.4,0c-0.6,0 -1.1,0.5 -1.1,1.1s0.5,1.1 1.1,1.1l17.4,0c0.6,0 1.1,-0.5 1.1,-1.1s-0.5,-1.1 -1.1,-1.1z" class="st0"/>
   <path id="svg_45" d="m515.4,17.4l-17.4,0c-0.6,0 -1.1,0.5 -1.1,1.1s0.5,1.1 1.1,1.1l17.4,0c0.6,0 1.1,-0.5 1.1,-1.1s-0.5,-1.1 -1.1,-1.1z" class="st0"/>
   <path id="svg_46" d="m515.4,21.6l-17.4,0c-0.6,0 -1.1,0.5 -1.1,1.1s0.5,1.1 1.1,1.1l17.4,0c0.6,0 1.1,-0.5 1.1,-1.1s-0.5,-1.1 -1.1,-1.1z" class="st0"/>
   <path id="svg_47" d="m515.4,25.7l-17.4,0c-0.6,0 -1.1,0.5 -1.1,1.1s0.5,1.1 1.1,1.1l17.4,0c0.6,0 1.1,-0.5 1.1,-1.1s-0.5,-1.1 -1.1,-1.1z" class="st0"/>
   <path id="svg_48" d="m515.4,29.8l-17.4,0c-0.6,0 -1.1,0.5 -1.1,1.1s0.5,1.1 1.1,1.1l17.4,0c0.6,0 1.1,-0.5 1.1,-1.1s-0.5,-1.1 -1.1,-1.1z" class="st0"/>
   <path id="svg_49" d="m510.6,33.9l-12.6,0c-0.6,0 -1.1,0.5 -1.1,1.1c0,0.6 0.5,1.1 1.1,1.1l12.6,0c0.6,0 1.1,-0.5 1.1,-1.1c0,-0.6 -0.5,-1.1 -1.1,-1.1z" class="st0"/>
  </g>
  <g id="svg_50">
   <path id="svg_51" d="m623.4,22c-1.3,0 -2.4,-1.1 -2.4,-2.4l0,2.1c0,1.4 1.1,2.5 2.5,2.5l14.6,0l0,-2.1l0,0l-14.7,-0.1c0,0 0,0 0,0z" class="st0"/>
   <path id="svg_52" d="m660.6,22c0,0 0,0 0,0l-14.3,0l0,0l2.8,2.1l11.4,0c1.4,0 2.4,-1.1 2.4,-2.5l0,-2.1c0.1,1.4 -1,2.5 -2.3,2.5z" class="st0"/>
   <path id="svg_53" d="m660.6,1l-37.1,0c-1.4,0 -2.5,1.1 -2.5,2.5l0,1.2l0,13.9c0,1.4 1.1,2.4 2.5,2.4l14.6,0l0,-2.1l-14.7,0c-0.2,0 -0.3,-0.2 -0.3,-0.3l0,-14l0,-1.1c0,-0.2 0.2,-0.4 0.3,-0.4l37.1,0c0.2,0 0.3,0.2 0.3,0.4l0,1.2l0,13.9c0,0.2 -0.2,0.3 -0.3,0.3l-18.4,0l2.9,2.1l15.6,0c1.4,0 2.4,-1.1 2.4,-2.4l0,-14l0,-1.1c0,-1.4 -1.1,-2.5 -2.4,-2.5z" class="st0"/>
   <path id="svg_54" d="m639.5,18.2c-0.1,0 -0.1,-0.1 -0.2,-0.1c-0.1,0 -0.2,0.1 -0.2,0.2l0,12.6l3.9,-2.9l0.5,1l3.5,7l1.9,-0.9l-3.5,-7.1l-0.5,-1l4.8,-1.1l-10.2,-7.7z" class="st0"/>
  </g>
  <g id="svg_55">
   <path id="svg_56" d="m721.8,23l-35.7,0c-1.7,0 -3.2,1.4 -3.2,3.2l0,6.7c0,1.7 1.4,3.2 3.2,3.2l35.7,0c1.7,0 3.2,-1.4 3.2,-3.2l0,-6.7c0,-1.8 -1.4,-3.2 -3.2,-3.2zm-14,7.5l-3.1,0l0,3.1l-1.4,0l0,-3.1l-3.1,0l0,-1.4l3.1,0l0,-3.1l1.4,0l0,3.1l3.1,0l0,1.4z" class="st0"/>
   <path id="svg_57" d="m721.8,1l-13.3,0c-1.7,0 -3.2,1.4 -3.2,3.2l0,13.3c0,1.7 1.4,3.2 3.2,3.2l13.3,0c1.7,0 3.2,-1.4 3.2,-3.2l0,-13.3c0,-1.8 -1.4,-3.2 -3.2,-3.2zm1.1,16.4c0,0.6 -0.5,1.1 -1.1,1.1l-13.3,0c-0.6,0 -1.1,-0.5 -1.1,-1.1l0,-13.2c0,-0.6 0.5,-1.1 1.1,-1.1l13.3,0c0.6,0 1.1,0.5 1.1,1.1l0,13.2z" class="st0"/>
   <path id="svg_58" d="m686.2,20.6l13.3,0c1.7,0 3.2,-1.4 3.2,-3.2l0,-13.2c0,-1.7 -1.4,-3.2 -3.2,-3.2l-13.3,0c-1.7,0 -3.2,1.4 -3.2,3.2l0,13.3c0,1.7 1.4,3.1 3.2,3.1zm-1.1,-16.4c0,-0.6 0.5,-1.1 1.1,-1.1l13.3,0c0.6,0 1.1,0.5 1.1,1.1l0,13.3c0,0.6 -0.5,1.1 -1.1,1.1l-13.3,0c-0.6,0 -1.1,-0.5 -1.1,-1.1l0,-13.3z" class="st0"/>
   <path id="svg_59" d="m715.7,8.8c0,0 0,0 0,0c0,-0.4 0.1,-0.7 0.6,-0.7c0.5,0 0.9,0 0.9,0l0,-1.3c0,0 -0.4,-0.1 -1,-0.1c-1.4,0 -1.9,0.8 -1.9,1.7c0,0.6 0,1.2 0,1.2l-1,0l0,1.4l1,0l0,3.8l1.4,0l0,-3.8l1.4,0l0.1,-1.4l-1.5,0c0,-0.5 0,-0.7 0,-0.8z" class="st0"/>
   <path id="svg_60" d="m687.9,13.9c0.9,0.6 2,0.9 3.1,0.9c3.7,0 5.8,-3.1 5.8,-5.8c0,-0.1 0,-0.2 0,-0.3c0.4,-0.3 0.7,-0.6 1,-1c-0.4,0.2 -0.8,0.3 -1.2,0.3c0.4,-0.3 0.7,-0.6 0.9,-1.1c-0.4,0.2 -0.8,0.4 -1.3,0.5c-0.4,-0.4 -0.9,-0.6 -1.5,-0.6c-1.1,0 -2,0.9 -2,2c0,0.2 0,0.3 0.1,0.5c-1.7,-0.1 -3.2,-0.9 -4.2,-2.1c-0.2,0.3 -0.3,0.6 -0.3,1c0,0.7 0.4,1.3 0.9,1.7c-0.3,0 -0.6,-0.1 -0.9,-0.3c0,0 0,0 0,0c0,1 0.7,1.8 1.6,2c-0.2,0 -0.3,0.1 -0.5,0.1c-0.1,0 -0.3,0 -0.4,0c0.3,0.8 1,1.4 1.9,1.4c-0.7,0.5 -1.6,0.9 -2.5,0.9c-0.2,-0.1 -0.4,-0.1 -0.5,-0.1z" class="st0"/>
  </g>
  <g id="svg_61">
   <path id="svg_62" d="m783.9,1l-6.7,0c-1.7,0 -3.1,1.4 -3.1,3.1l0,28.7c0,1.7 1.4,3.1 3.1,3.1l6.7,0c1.7,0 3.1,-1.4 3.1,-3.1l0,-28.7c0,-1.7 -1.4,-3.1 -3.1,-3.1zm-4.8,23.1l0,0l0,0l0,0zm2.4,-2.3l-3,0l2.3,-2.3l-4.7,0l0,-2.1l4.7,0l-2.3,-2.3l3,0l3.3,3.3l-3.3,3.4z" class="st0"/>
   <path id="svg_63" d="m768.8,1l-20.6,0c-1.7,0 -3.1,1.4 -3.1,3.1l0,10.1c0,1.7 1.4,3.1 3.1,3.1l20.6,0c1.7,0 3.1,-1.4 3.1,-3.1l0,-10.1c0,-1.7 -1.4,-3.1 -3.1,-3.1zm1,13.3c0,0.6 -0.5,1 -1,1l-20.6,0c-0.6,0 -1,-0.5 -1,-1l0,-10.2c0,-0.6 0.5,-1 1,-1l20.6,0c0.6,0 1,0.5 1,1l0,10.2z" class="st0"/>
   <path id="svg_64" d="m768.8,19.6l-20.6,0c-1.7,0 -3.1,1.4 -3.1,3.1l0,10.1c0,1.7 1.4,3.1 3.1,3.1l20.6,0c1.7,0 3.1,-1.4 3.1,-3.1l0,-10.1c0,-1.7 -1.4,-3.1 -3.1,-3.1zm1,13.3c0,0.6 -0.5,1 -1,1l-20.6,0c-0.6,0 -1,-0.5 -1,-1l0,-10.2c0,-0.6 0.5,-1 1,-1l20.6,0c0.6,0 1,0.5 1,1l0,10.2z" class="st0"/>
   <path id="svg_65" d="m758.9,7.1c0,-0.4 0.1,-0.6 0.6,-0.6c0.5,0 0.9,0 0.9,0l0,-1.3c0,0 -0.4,-0.1 -1,-0.1c-1.4,0 -1.9,0.8 -1.9,1.7c0,0.6 0,1.2 0,1.2l-1,0l0,1.4l1,0l0,3.8l1.4,0l0,-3.8l1.4,0l0.1,-1.4l-1.5,0c0,-0.7 0,-0.9 0,-0.9z" class="st0"/>
   <path id="svg_66" d="m763.1,23.9c-0.4,0.2 -0.8,0.4 -1.3,0.5c-0.4,-0.4 -0.9,-0.6 -1.5,-0.6c-1.1,0 -2,0.9 -2,2c0,0.2 0,0.3 0.1,0.5c-1.7,-0.1 -3.2,-0.9 -4.2,-2.1c-0.2,0.3 -0.3,0.6 -0.3,1c0,0.7 0.4,1.3 0.9,1.7c-0.3,0 -0.6,-0.1 -0.9,-0.3c0,0 0,0 0,0c0,1 0.7,1.8 1.6,2c-0.2,0 -0.3,0.1 -0.5,0.1c-0.1,0 -0.3,0 -0.4,0c0.3,0.8 1,1.4 1.9,1.4c-0.7,0.5 -1.6,0.9 -2.5,0.9c-0.2,0 -0.3,0 -0.5,0c0.9,0.6 2,0.9 3.1,0.9c3.7,0 5.7,-3.1 5.7,-5.7c0,-0.1 0,-0.2 0,-0.3c0.4,-0.3 0.7,-0.6 1,-1c-0.4,0.2 -0.8,0.3 -1.2,0.3c0.5,-0.4 0.9,-0.8 1,-1.3z" class="st0"/>
  </g>
  <g id="svg_67">
   <path id="svg_68" d="m844.2,20.6l-7,0c-0.6,0 -1,0.5 -1,1s0.5,1 1,1l7,0c0.6,0 1,-0.5 1,-1s-0.4,-1 -1,-1z" class="st0"/>
   <path id="svg_69" d="m833,20.6l-7,0c-0.6,0 -1,0.5 -1,1c0,0.6 0.5,1.1 1,1.1l7,0c0.6,0 1,-0.5 1,-1.1c0.1,-0.5 -0.4,-1 -1,-1z" class="st0"/>
   <path id="svg_70" d="m845.8,8.7l-35.7,0c-1.7,0 -3.2,1.4 -3.2,3.1l0,13.2c0,1.7 1.4,3.2 3.2,3.2l35.7,0c1.7,0 3.2,-1.4 3.2,-3.2l0,-13.1c0,-1.7 -1.4,-3.2 -3.2,-3.2zm-24.7,17.5l-11,0c-0.6,0 -1.1,-0.5 -1.1,-1.1l0,-13.2c0,-0.6 0.5,-1 1.1,-1l11,0l0,15.3zm25.8,-1.1c0,0.6 -0.5,1.1 -1.1,1.1l-22.6,0l0,-15.3l22.6,0c0.6,0 1.1,0.5 1.1,1l0,13.2z" class="st0"/>
   <path id="svg_71" d="m811.4,22.7c0.2,0 0.5,-0.1 0.7,-0.3l1.3,-1.1c0.4,0.1 1.1,0.3 1.8,0.3l0,0c1.6,0 2.3,-0.7 2.7,-1.4c1.4,-2.4 1.8,-4.6 1.8,-4.7c0.1,-0.3 0,-0.7 -0.3,-0.9c-0.2,-0.2 -0.6,-0.4 -0.9,-0.3c0,0 -3.9,0.8 -5.1,1.8c-1.1,0.8 -1.5,2.1 -1.3,3.6l-1.4,1.2c-0.4,0.4 -0.5,1 -0.1,1.5c0.3,0.2 0.5,0.3 0.8,0.3zm3.3,-4.9c0.3,-0.3 1.2,-0.6 2.2,-0.9l-2.7,2.4c-0.1,-0.6 0,-1.1 0.5,-1.5z" class="st0"/>
  </g>
  <g id="svg_72">
   <path id="svg_73" d="m885.6,11.5c-0.4,0 -0.8,0 -1.2,0.1c-0.6,0.1 -1,0.6 -0.9,1.2c0.1,0.6 0.6,1 1.2,0.9c0.3,-0.1 0.6,-0.1 0.8,-0.1c2.8,0 5.1,2.3 5.1,5.1c0,0.3 0,0.5 -0.1,0.8c-0.1,0.6 0.3,1.1 0.9,1.2c0.1,0 0.1,0 0.2,0c0.5,0 1,-0.4 1,-0.9c0.1,-0.4 0.1,-0.8 0.1,-1.2c0.2,-3.9 -3.1,-7.1 -7.1,-7.1z" class="st0"/>
   <path id="svg_74" d="m885.6,6.8c-0.3,0 -0.7,0 -1.1,0.1c-0.6,0.1 -1,0.6 -1,1.1s0.6,1 1.1,1c0.3,0 0.6,0 0.9,0c5.4,0 9.8,4.4 9.8,9.8c0,0.3 0,0.6 0,0.9c-0.1,0.6 0.4,1.1 1,1.1c0,0 0.1,0 0.1,0c0.5,0 1,-0.4 1,-1c0,-0.4 0.1,-0.7 0.1,-1.1c0,-6.5 -5.3,-11.9 -11.9,-11.9z" class="st0"/>
   <path id="svg_75" d="m907.8,1l-35.7,0c-1.7,0 -3.1,1.4 -3.1,3.1l0,19.4c0,1.7 1.4,3.1 3.1,3.1l35.7,0c1.7,0 3.1,-1.4 3.1,-3.1l0,-19.4c0.1,-1.7 -1.3,-3.1 -3.1,-3.1zm1.1,22.5c0,0.6 -0.5,1 -1,1l-35.7,0c-0.6,0 -1,-0.5 -1,-1l0,-19.4c0,-0.6 0.5,-1 1,-1l35.7,0c0.6,0 1,0.5 1,1l0,19.4z" class="st0"/>
   <circle id="svg_76" r="2.1" cy="18.7" cx="885.7" class="st0"/>
   <path id="svg_77" d="m909.9,29.2l-39.8,0c-0.6,0 -1,0.5 -1,1s0.5,1 1,1l39.8,0c0.6,0 1,-0.5 1,-1s-0.4,-1 -1,-1z" class="st0"/>
   <path id="svg_78" d="m909.9,33.9l-39.8,0c-0.6,0 -1,0.5 -1,1s0.5,1 1,1l39.8,0c0.6,0 1,-0.5 1,-1s-0.4,-1 -1,-1z" class="st0"/>
  </g>
  <g id="svg_79">
   <path id="svg_80" d="m969.8,20l-35.7,0c-1.7,0 -3.1,1.4 -3.1,3.1l0,9.7c0,1.7 1.4,3.2 3.1,3.2l35.7,0c1.7,0 3.1,-1.4 3.1,-3.2l0,-9.7c0.1,-1.7 -1.3,-3.1 -3.1,-3.1zm1.1,12.8c0,0.6 -0.5,1.1 -1,1.1l-35.7,0c-0.6,0 -1,-0.5 -1,-1.1l0,-9.7c0,-0.6 0.5,-1 1,-1l35.7,0c0.6,0 1,0.5 1,1l0,9.7z" class="st0"/>
   <path id="svg_81" d="m953.6,14.9c0.1,0 0.1,0 0.2,0c0.5,0 1,-0.4 1,-0.9c0.1,-0.4 0.1,-0.8 0.1,-1.2c0,-4 -3.2,-7.2 -7.2,-7.2c-0.4,0 -0.8,0 -1.2,0.1c-0.6,0.1 -1,0.6 -0.9,1.2c0.1,0.6 0.6,1 1.2,0.9c0.3,-0.1 0.6,-0.1 0.8,-0.1c2.8,0 5.1,2.3 5.1,5.1c0,0.3 0,0.5 -0.1,0.8c0,0.7 0.4,1.2 1,1.3z" class="st0"/>
   <path id="svg_82" d="m946.7,3.1c0.3,0 0.6,0 0.9,0c5.4,0 9.8,4.4 9.8,9.8c0,0.3 0,0.6 0,0.9c-0.1,0.6 0.4,1.1 1,1.1c0,0 0.1,0 0.1,0c0.5,0 1,-0.4 1,-1c0,-0.4 0.1,-0.7 0.1,-1.1c0,-6.6 -5.3,-11.9 -11.9,-11.9c-0.3,0 -0.7,0 -1.1,0.1c-0.6,0.1 -1,0.6 -1,1.1c0,0.7 0.6,1.1 1.1,1z" class="st0"/>
   <circle id="svg_83" r="2.1" cy="12.8" cx="947.7" class="st0"/>
   <path id="svg_84" d="m967.5,24.6l-30.8,0c-0.6,0 -1,0.5 -1,1s0.5,1 1,1l30.8,0c0.6,0 1,-0.5 1,-1s-0.4,-1 -1,-1z" class="st0"/>
   <path id="svg_85" d="m967.5,29.3l-30.8,0c-0.6,0 -1,0.5 -1,1s0.5,1 1,1l30.8,0c0.6,0 1,-0.5 1,-1s-0.4,-1 -1,-1z" class="st0"/>
  </g>
  <g id="svg_86">
   <path id="svg_87" d="m287.8,1l-35.7,0c-1.7,0 -3.2,1.4 -3.2,3.2l0,28.7c0,1.7 1.4,3.2 3.2,3.2l35.7,0c1.7,0 3.2,-1.4 3.2,-3.2l0,-28.7c0,-1.8 -1.4,-3.2 -3.2,-3.2zm1.1,31.8c0,0.6 -0.5,1.1 -1.1,1.1l-35.7,0c-0.6,0 -1.1,-0.5 -1.1,-1.1l0,-28.6c0,-0.6 0.5,-1.1 1.1,-1.1l35.7,0c0.6,0 1.1,0.5 1.1,1.1l0,28.6z" class="st0"/>
   <path id="svg_88" d="m285.7,29c0,-0.6 -0.5,-1.2 -1.2,-1.2s-1.2,0.5 -1.2,1.2c0,0.5 0.4,1 0.8,1.1l0,0l-0.2,0.2c-0.2,0.2 -0.3,0.6 -0.1,0.8c0.1,0.1 0.3,0.2 0.4,0.2c0.1,0 0.2,0 0.4,-0.1l0.8,-0.7c0.1,-0.1 0.2,-0.3 0.2,-0.4l0,-0.9c0,0 0,0 0,0l0.1,-0.2c0,0 0,0 0,0z" class="st0"/>
   <path id="svg_89" d="m282.7,29c0,-0.6 -0.5,-1.2 -1.2,-1.2s-1.2,0.5 -1.2,1.2c0,0.5 0.4,1 0.8,1.1l0,0l-0.2,0.2c-0.2,0.2 -0.3,0.6 -0.1,0.8c0.1,0.1 0.3,0.2 0.4,0.2c0.1,0 0.2,0 0.4,-0.1l0.8,-0.7c0.1,-0.1 0.2,-0.3 0.2,-0.4l0,-0.9c0,0 0,0 0,0l0.1,-0.2c0,0 0,0 0,0z" class="st0"/>
   <path id="svg_90" d="m254.3,7c0,0 0,0 0,0l0,0.9c0,0.2 0.1,0.3 0.2,0.4l0.8,0.7c0.1,0.1 0.2,0.1 0.4,0.1c0.2,0 0.3,-0.1 0.4,-0.2c0.2,-0.2 0.2,-0.6 -0.1,-0.8l-0.2,-0.2l0,0c0.5,-0.1 0.8,-0.6 0.8,-1.1c0,-0.6 -0.5,-1.2 -1.2,-1.2s-1.2,0.5 -1.2,1.2c0,0 0,0 0,0l0,0.2l0.1,0z" class="st0"/>
   <path id="svg_91" d="m257.3,7c0,0 0,0 0,0l0,0.9c0,0.2 0.1,0.3 0.2,0.4l0.8,0.7c0.1,0.1 0.2,0.1 0.4,0.1c0.2,0 0.3,-0.1 0.4,-0.2c0.2,-0.2 0.2,-0.6 -0.1,-0.8l-0.2,-0.2l0,0c0.5,-0.1 0.8,-0.6 0.8,-1.1c0,-0.6 -0.5,-1.2 -1.2,-1.2s-1.2,0.5 -1.2,1.2c0,0 0,0 0,0l0,0.2l0.1,0z" class="st0"/>
   <path id="svg_92" d="m284.7,5.7l-22.3,0c-0.6,0 -1.1,0.5 -1.1,1.1c0,0.6 0.5,1.1 1.1,1.1l22.3,0c0.6,0 1.1,-0.5 1.1,-1.1c-0.1,-0.6 -0.6,-1.1 -1.1,-1.1z" class="st0"/>
   <path id="svg_93" d="m277.6,29.2l-22.3,0c-0.6,0 -1.1,0.5 -1.1,1.1c0,0.6 0.5,1.1 1.1,1.1l22.3,0c0.6,0 1.1,-0.5 1.1,-1.1c0,-0.6 -0.5,-1.1 -1.1,-1.1z" class="st0"/>
   <path id="svg_94" d="m284.7,10.4l-29.3,0c-0.6,0 -1.1,0.5 -1.1,1.1c0,0.6 0.5,1.1 1.1,1.1l29.3,0c0.6,0 1.1,-0.5 1.1,-1.1c-0.1,-0.6 -0.6,-1.1 -1.1,-1.1z" class="st0"/>
   <path id="svg_95" d="m284.7,15.1l-29.3,0c-0.6,0 -1.1,0.5 -1.1,1.1c0,0.6 0.5,1.1 1.1,1.1l29.3,0c0.6,0 1.1,-0.5 1.1,-1.1c-0.1,-0.6 -0.6,-1.1 -1.1,-1.1z" class="st0"/>
   <path id="svg_96" d="m284.7,19.8l-29.3,0c-0.6,0 -1.1,0.5 -1.1,1.1c0,0.6 0.5,1.1 1.1,1.1l29.3,0c0.6,0 1.1,-0.5 1.1,-1.1c-0.1,-0.6 -0.6,-1.1 -1.1,-1.1z" class="st0"/>
   <path id="svg_97" d="m284.7,24.5l-29.3,0c-0.6,0 -1.1,0.5 -1.1,1.1c0,0.6 0.5,1.1 1.1,1.1l29.3,0c0.6,0 1.1,-0.5 1.1,-1.1c-0.1,-0.6 -0.6,-1.1 -1.1,-1.1z" class="st0"/>
  </g>
  <g id="svg_98">
   <polygon id="svg_99" points="388.3,6.5 390.3,8.5 392.6,6.3 392.6,12.1 395.5,12.1 395.5,6.3 397.7,8.5 399.7,6.5 394.1,1  " class="st0"/>
   <polygon id="svg_100" points="395.5,30.7 395.5,24.9 392.6,24.9 392.6,30.7 390.3,28.5 388.3,30.5 394.1,36 399.7,30.5 397.7,28.5     " class="st0"/>
   <path id="svg_101" d="m376.6,17l-2,0c-0.8,0 -1.5,0.7 -1.5,1.5s0.7,1.5 1.5,1.5l2,0c0.8,0 1.5,-0.7 1.5,-1.5s-0.7,-1.5 -1.5,-1.5z" class="st0"/>
   <path id="svg_102" d="m386.2,17l-3.5,0c-0.8,0 -1.5,0.7 -1.5,1.5s0.7,1.5 1.5,1.5l3.5,0c0.8,0 1.5,-0.7 1.5,-1.5s-0.7,-1.5 -1.5,-1.5z" class="st0"/>
   <path id="svg_103" d="m395.8,20c0.8,0 1.5,-0.7 1.5,-1.5s-0.7,-1.5 -1.5,-1.5l-3.5,0c-0.8,0 -1.5,0.7 -1.5,1.5s0.7,1.5 1.5,1.5l3.5,0z" class="st0"/>
   <path id="svg_104" d="m405.4,17l-3.5,0c-0.8,0 -1.5,0.7 -1.5,1.5s0.7,1.5 1.5,1.5l3.5,0c0.8,0 1.5,-0.7 1.5,-1.5s-0.6,-1.5 -1.5,-1.5z" class="st0"/>
   <path id="svg_105" d="m413.6,17l-2,0c-0.8,0 -1.5,0.7 -1.5,1.5s0.7,1.5 1.5,1.5l2,0c0.8,0 1.5,-0.7 1.5,-1.5s-0.7,-1.5 -1.5,-1.5z" class="st0"/>
  </g>
  <g id="svg_106">
   <path id="svg_107" d="m597.8,1l-35.7,0c-1.7,0 -3.2,1.4 -3.2,3.1l0,20.4c0,1.7 1.4,3.1 3.2,3.1l35.7,0c1.7,0 3.2,-1.4 3.2,-3.1l0,-20.4c0,-1.7 -1.4,-3.1 -3.2,-3.1zm1.1,23.5c0,0.6 -0.5,1 -1,1l-35.6,0c-0.6,0 -1,-0.5 -1,-1l0,-20.3c0,-0.6 0.5,-1 1,-1l35.6,0c0.6,0 1,0.5 1,1l0,20.3z" class="st0"/>
   <path id="svg_108" d="m596.2,7.9c-0.1,0 -9.6,-2.1 -15.3,-2.1c-1.2,0 -2.1,0.1 -2.8,0.3c-4.2,1 -7.1,4.5 -8,9.7l-6.3,1.9c-0.5,0.2 -0.9,0.7 -0.7,1.3c0.1,0.5 0.5,0.7 1,0.7c0.1,0 0.2,0 0.3,0l6.2,-1.8c1.2,1.4 4.9,5.3 9.2,5.3l0,0c0.9,0 1.8,-0.2 2.6,-0.6c9.3,-4 14.3,-12.7 14.5,-13.1c0.2,-0.3 0.2,-0.6 0.1,-0.9c-0.2,-0.4 -0.5,-0.6 -0.8,-0.7zm-2,1.8l0,0l-5.7,1.7l0,-0.7c0,-0.6 -0.5,-1 -1,-1s-1,0.5 -1,1l0,1.3l-3.4,1l0,-2.8c0,-0.6 -0.5,-1 -1,-1s-1,0.5 -1,1l0,3.4l-3.2,0.9l0,-2.5c0,-0.6 -0.5,-1 -1,-1s-1,0.5 -1,1l0,3.2l-3.6,1.1c0.5,-2.8 1.9,-7.2 6.5,-8.2c0.6,-0.1 1.4,-0.2 2.4,-0.2c4.2,0 10.6,1.2 13.4,1.7c-0.3,0 -0.4,0.1 -0.4,0.1z" class="st0"/>
   <path id="svg_109" d="m599.9,33.9l-39.9,0c-0.6,0 -1.1,0.5 -1.1,1.1c0,0.6 0.5,1.1 1.1,1.1l39.9,0c0.6,0 1.1,-0.5 1.1,-1.1c0,-0.6 -0.5,-1.1 -1.1,-1.1z" class="st0"/>
   <path id="svg_110" d="m599.9,29.8l-39.9,0c-0.6,0 -1.1,0.5 -1.1,1.1c0,0.6 0.5,1.1 1.1,1.1l39.9,0c0.6,0 1.1,-0.5 1.1,-1.1c0,-0.7 -0.5,-1.1 -1.1,-1.1z" class="st0"/>
  </g>
  <g id="svg_111">
   <path id="svg_112" d="m39.8,56l-35.6,0c-1.8,0 -3.2,1.4 -3.2,3.1l0,28.7c0,1.8 1.4,3.2 3.2,3.2l35.7,0c1.7,0 3.2,-1.4 3.2,-3.2l0,-28.7c-0.1,-1.7 -1.5,-3.1 -3.3,-3.1zm1.1,31.8c0,0.6 -0.5,1 -1,1l-35.7,0c-0.6,0 -1,-0.5 -1,-1l0,-28.6c0,-0.6 0.5,-1 1,-1l35.7,0c0.6,0 1,0.5 1,1l0,28.6z" class="st1"/>
   <path id="svg_113" d="m37.4,62.5c-0.1,0 -15.3,0.7 -20,3.2c-4.2,2.3 -6.3,6.8 -5.7,12.6l-6.3,3.8c-0.5,0.3 -0.7,1 -0.4,1.4c0.2,0.3 0.5,0.5 0.9,0.5c0.2,0 0.4,0 0.5,-0.2l6.2,-3.8c1.4,0.9 5.3,3.4 9.2,3.4l0,0c1.9,0 3.5,-0.5 4.8,-1.6c8.8,-7 11.6,-17.7 11.7,-18.2c0.1,-0.3 0,-0.7 -0.2,-0.9c-0.1,0 -0.4,-0.2 -0.7,-0.2zm-7.8,6.2l0,-0.6c0,-0.6 -0.5,-1.1 -1.1,-1.1c-0.6,0 -1.1,0.5 -1.1,1.1l0,1.9l-3,1.8l0,-2.8c0,-0.6 -0.5,-1.1 -1.1,-1.1c-0.6,0 -1.1,0.5 -1.1,1.1l0,4.1l-2.7,1.6l0,-2.4c0,-0.6 -0.5,-1.1 -1.1,-1.1c-0.6,0 -1.1,0.5 -1.1,1.1l0,3.7l-3.9,2.4c-0.3,-3.2 0,-8.3 4.6,-10.8c3.3,-1.8 13.6,-2.7 17.5,-2.9c-1,0.9 -5.9,4 -5.9,4z" class="st1"/>
  </g>
  <g id="svg_114">
   <path id="svg_115" d="m101.8,77.9l-35.6,0c-1.7,0 -3.2,1.4 -3.2,3.2l0,6.8c0,1.7 1.4,3.2 3.2,3.2l35.7,0c1.7,0 3.2,-1.4 3.2,-3.2l0,-6.9c-0.1,-1.7 -1.5,-3.1 -3.3,-3.1zm-14,7.6l-3.1,0l0,3.1l-1.4,0l0,-3.1l-3.1,0l0,-1.5l3.1,0l0,-3.1l1.4,0l0,3.1l3.1,0l0,1.5z" class="st1"/>
   <path id="svg_116" d="m101.8,56l-13.3,0c-1.7,0 -3.2,1.4 -3.2,3.2l0,13.4c0,1.7 1.4,3.2 3.2,3.2l13.4,0c1.7,0 3.2,-1.4 3.2,-3.2l0,-13.4c-0.1,-1.8 -1.5,-3.2 -3.3,-3.2zm1.1,16.5c0,0.6 -0.5,1.1 -1.1,1.1l-13.3,0c-0.6,0 -1.1,-0.5 -1.1,-1.1l0,-13.3c0,-0.6 0.5,-1.1 1.1,-1.1l13.4,0c0.6,0 1.1,0.5 1.1,1.1l0,13.3l-0.1,0z" class="st1"/>
   <path id="svg_117" d="m99.6,61.1c0,0 -4.8,1 -6.3,2.2c-1.3,1 -1.8,2.6 -1.5,4.4l-1.8,1.6c-0.4,0.4 -0.5,1 -0.1,1.5c0.2,0.2 0.5,0.4 0.8,0.4c0.2,0 0.5,-0.1 0.7,-0.3l1.7,-1.5c0.5,0.2 1.4,0.4 2.4,0.4l0,0c1.9,0 2.8,-0.9 3.2,-1.6c1.7,-3 2.2,-5.7 2.2,-5.8c0.1,-0.3 0,-0.7 -0.3,-0.9c-0.3,-0.3 -0.7,-0.4 -1,-0.4zm-5.8,6.2c-0.1,-0.8 -0.1,-1.7 0.7,-2.3c0.5,-0.4 2,-0.9 3.3,-1.3l-4,3.6z" class="st1"/>
   <path id="svg_118" d="m66.2,75.7l13.4,0c1.7,0 3.2,-1.4 3.2,-3.2l0,-13.3c0,-1.7 -1.4,-3.2 -3.2,-3.2l-13.4,0c-1.7,0 -3.2,1.4 -3.2,3.2l0,13.4c0,1.7 1.4,3.1 3.2,3.1zm-1.1,-16.5c0,-0.6 0.5,-1.1 1.1,-1.1l13.4,0c0.6,0 1.1,0.5 1.1,1.1l0,13.4c0,0.6 -0.5,1.1 -1.1,1.1l-13.4,0c-0.6,0 -1.1,-0.5 -1.1,-1.1l0,-13.4z" class="st1"/>
   <path id="svg_119" d="m68.3,71.2c0.2,0 0.5,-0.1 0.7,-0.3l1.7,-1.5c0.5,0.2 1.4,0.4 2.4,0.4l0,0c1.9,0 2.8,-0.9 3.2,-1.6c1.7,-3 2.2,-5.7 2.2,-5.8c0.1,-0.3 0,-0.7 -0.3,-0.9c-0.2,-0.2 -0.6,-0.4 -0.9,-0.3c0,0 -4.8,1 -6.3,2.2c-1.3,1 -1.8,2.6 -1.5,4.4l-1.8,1.6c-0.4,0.4 -0.5,1 -0.1,1.5c0.1,0.2 0.4,0.3 0.7,0.3zm3.9,-6.2c0.5,-0.4 2,-0.9 3.3,-1.3l-4.1,3.6c0,-0.8 0.1,-1.7 0.8,-2.3z" class="st1"/>
  </g>
  <g id="svg_120">
   <path id="svg_121" d="m163.8,56l-35.7,0c-1.7,0 -3.2,1.4 -3.2,3.1l0,28.7c0,1.7 1.4,3.2 3.2,3.2l35.7,0c1.7,0 3.2,-1.4 3.2,-3.2l0,-28.7c0,-1.7 -1.4,-3.1 -3.2,-3.1zm1.1,31.8c0,0.6 -0.5,1.1 -1.1,1.1l-35.7,0c-0.6,0 -1.1,-0.5 -1.1,-1.1l0,-28.6c0,-0.6 0.5,-1.1 1.1,-1.1l35.7,0c0.6,0 1.1,0.5 1.1,1.1l0,28.6z" class="st1"/>
   <path id="svg_122" d="m132.3,78.2l27.3,0c1.7,0 3.2,-1.4 3.2,-3.1l0,-11.7c0,-1.7 -1.4,-3.2 -3.2,-3.2l-27.3,0c-1.7,0 -3.2,1.4 -3.2,3.2l0,11.7c0.1,1.7 1.5,3.1 3.2,3.1zm-1,-14.8c0,-0.6 0.5,-1.1 1.1,-1.1l27.3,0c0.6,0 1.1,0.5 1.1,1.1l0,11.7c0,0.6 -0.5,1.1 -1.1,1.1l-27.3,0c-0.6,0 -1.1,-0.5 -1.1,-1.1l0,-11.7z" class="st1"/>
   <path id="svg_123" d="m137,72.1c0.1,0 0.2,0 0.3,0l3.7,-1c0.8,0.8 3.2,2.9 5.7,2.9l0,0c0.8,0 1.6,-0.2 2.3,-0.7c4.2,-2.9 6.7,-6.3 6.8,-6.4c0.2,-0.3 0.3,-0.6 0.2,-1c-0.1,-0.3 -0.4,-0.6 -0.7,-0.7c0,0 -5.4,-1.3 -8.6,-1.3c-0.6,0 -1,0 -1.4,0.1c-2.3,0.5 -4,2.3 -4.6,5l-3.9,1.1c-0.6,0.2 -0.9,0.7 -0.7,1.3c0.1,0.4 0.5,0.7 0.9,0.7zm8.7,-6c0.2,0 0.4,-0.1 0.9,-0.1c1.7,0 4.3,0.5 6.1,0.8l-2.7,0.7c-0.1,-0.4 -0.5,-0.7 -1,-0.7c-0.6,0 -1.1,0.5 -1.1,1.1l0,0.2l-1.4,0.4l0,-0.5c0,-0.6 -0.5,-1.1 -1.1,-1.1c-0.6,0 -1.1,0.5 -1.1,1.1l0,1l-1.8,0.5c0.5,-1.3 1.3,-3 3.2,-3.4z" class="st1"/>
   <path id="svg_124" d="m161.8,80.4l-31.5,0c-0.6,0 -1.1,0.5 -1.1,1.1s0.5,1.1 1.1,1.1l31.5,0c0.6,0 1.1,-0.5 1.1,-1.1s-0.5,-1.1 -1.1,-1.1z" class="st1"/>
   <path id="svg_125" d="m161.8,84.7l-31.5,0c-0.6,0 -1.1,0.5 -1.1,1.1c0,0.6 0.5,1.1 1.1,1.1l31.5,0c0.6,0 1.1,-0.5 1.1,-1.1c-0.1,-0.7 -0.5,-1.1 -1.1,-1.1z" class="st1"/>
  </g>
  <g id="svg_126">
   <path id="svg_127" d="m349.8,56l-35.7,0c-1.7,0 -3.2,1.4 -3.2,3.1l0,28.7c0,1.7 1.4,3.2 3.2,3.2l35.7,0c1.7,0 3.2,-1.4 3.2,-3.2l0,-28.7c0,-1.7 -1.4,-3.1 -3.2,-3.1zm1.1,31.8c0,0.6 -0.5,1.1 -1.1,1.1l-35.7,0c-0.6,0 -1.1,-0.5 -1.1,-1.1l0,-28.6c0,-0.6 0.5,-1.1 1.1,-1.1l35.7,0c0.6,0 1.1,0.5 1.1,1.1l0,28.6z" class="st1"/>
   <path id="svg_128" d="m337.4,72.3l-7.2,-5c-0.3,-0.2 -0.7,-0.3 -1.1,-0.1c-0.3,0.2 -0.6,0.5 -0.6,0.9l0,10.6c0,0.4 0.2,0.8 0.6,0.9c0.1,0.1 0.3,0.1 0.5,0.1c0.2,0 0.5,-0.1 0.7,-0.2l7.2,-5.6c0.3,-0.2 0.4,-0.5 0.4,-0.9c-0.1,-0.2 -0.3,-0.5 -0.5,-0.7z" class="st1"/>
  </g>
  <g id="svg_129">
   <path id="svg_130" d="m188.1,58.1l39.9,0c0.6,0 1.1,-0.5 1.1,-1.1s-0.5,-1.1 -1.1,-1.1l-39.9,0c-0.6,0 -1.1,0.5 -1.1,1.1s0.5,1.1 1.1,1.1z" class="st1"/>
   <path id="svg_131" d="m227.9,60.7l-39.9,0c-0.6,0 -1.1,0.5 -1.1,1.1s0.5,1.1 1.1,1.1l39.9,0c0.6,0 1.1,-0.5 1.1,-1.1s-0.5,-1.1 -1.1,-1.1z" class="st1"/>
   <path id="svg_132" d="m227.9,65.4l-39.9,0c-0.6,0 -1.1,0.5 -1.1,1.1c0,0.6 0.5,1.1 1.1,1.1l39.9,0c0.6,0 1.1,-0.5 1.1,-1.1c0,-0.6 -0.5,-1.1 -1.1,-1.1z" class="st1"/>
   <path id="svg_133" d="m227.9,70.1l-39.9,0c-0.6,0 -1.1,0.5 -1.1,1.1c0,0.6 0.5,1.1 1.1,1.1l39.9,0c0.6,0 1.1,-0.5 1.1,-1.1c0,-0.6 -0.5,-1.1 -1.1,-1.1z" class="st1"/>
   <path id="svg_134" d="m227.9,74.8l-39.9,0c-0.6,0 -1.1,0.5 -1.1,1.1s0.5,1.1 1.1,1.1l39.9,0c0.6,0 1.1,-0.5 1.1,-1.1s-0.5,-1.1 -1.1,-1.1z" class="st1"/>
   <path id="svg_135" d="m227.9,79.5l-39.9,0c-0.6,0 -1.1,0.5 -1.1,1.1s0.5,1.1 1.1,1.1l39.9,0c0.6,0 1.1,-0.5 1.1,-1.1s-0.5,-1.1 -1.1,-1.1z" class="st1"/>
   <path id="svg_136" d="m227.9,84.2l-39.9,0c-0.6,0 -1.1,0.5 -1.1,1.1c0,0.6 0.5,1.1 1.1,1.1l39.9,0c0.6,0 1.1,-0.5 1.1,-1.1c0,-0.6 -0.5,-1.1 -1.1,-1.1z" class="st1"/>
   <path id="svg_137" d="m208.1,88.9l-20.1,0c-0.6,0 -1.1,0.5 -1.1,1.1s0.5,1.1 1.1,1.1l20.1,0c0.6,0 1.1,-0.5 1.1,-1.1s-0.5,-1.1 -1.1,-1.1z" class="st1"/>
  </g>
  <g id="svg_138">
   <path id="svg_139" d="m451.4,56l-13.3,0c-1.7,0 -3.1,1.4 -3.1,3.1l0,20.6c0,1.7 1.4,3.1 3.1,3.1l13.3,0c1.7,0 3.1,-1.4 3.1,-3.1l0,-20.6c0,-1.7 -1.4,-3.1 -3.1,-3.1zm-6.1,11.9l0.3,0l-0.2,0.4l-1.3,0c-0.6,0 -1,0.5 -1,1c0,0.6 0.5,1 1,1l0.5,0l-0.2,0.6l-1.4,0c-0.6,0 -1,0.5 -1,1s0.5,1 1,1l0.5,0l-0.9,2.2c-1.3,-1.8 -1.7,-5 -0.7,-7c0.5,-1.1 2.6,-2.9 5.5,-4.9l-1,2.5l-1.2,0c-0.6,0 -1,0.5 -1,1s0.5,1.2 1.1,1.2zm7.1,11.8c0,0.6 -0.5,1 -1,1l-9.9,0l1.4,-3.4c2.9,-0.2 7.3,-1.9 7.3,-6.8c0,-5.8 -1.1,-9.1 -1.1,-9.2c-0.1,-0.3 -0.3,-0.5 -0.7,-0.6c-0.3,-0.1 -0.6,-0.1 -0.9,0.1l-0.1,0.1c-2.8,1.8 -6.3,4.4 -7.3,6.4c-1.3,2.7 -0.8,6.8 1,9.1l-1.6,3.9c0,0.1 -0.1,0.2 -0.1,0.3l-1.2,0c-0.6,0 -1,-0.5 -1,-1l0,-20.5c0,-0.6 0.5,-1 1,-1l13.3,0c0.6,0 1,0.5 1,1l0,20.6l-0.1,0z" class="st1"/>
   <path id="svg_140" d="m458.6,58.1l17.4,0c0.6,0 1.1,-0.5 1.1,-1.1s-0.5,-1.1 -1.1,-1.1l-17.4,0c-0.6,0 -1.1,0.5 -1.1,1.1s0.5,1.1 1.1,1.1z" class="st1"/>
   <path id="svg_141" d="m475.9,60.1l-17.4,0c-0.6,0 -1.1,0.5 -1.1,1.1s0.5,1.1 1.1,1.1l17.4,0c0.6,0 1.1,-0.5 1.1,-1.1s-0.5,-1.1 -1.1,-1.1z" class="st1"/>
   <path id="svg_142" d="m475.9,64.2l-17.4,0c-0.6,0 -1.1,0.5 -1.1,1.1s0.5,1.1 1.1,1.1l17.4,0c0.6,0 1.1,-0.5 1.1,-1.1s-0.5,-1.1 -1.1,-1.1z" class="st1"/>
   <path id="svg_143" d="m475.9,68.3l-17.4,0c-0.6,0 -1.1,0.5 -1.1,1.1s0.5,1.1 1.1,1.1l17.4,0c0.6,0 1.1,-0.5 1.1,-1.1s-0.5,-1.1 -1.1,-1.1z" class="st1"/>
   <path id="svg_144" d="m475.9,72.4l-17.4,0c-0.6,0 -1.1,0.5 -1.1,1.1s0.5,1.1 1.1,1.1l17.4,0c0.6,0 1.1,-0.5 1.1,-1.1s-0.5,-1.1 -1.1,-1.1z" class="st1"/>
   <path id="svg_145" d="m475.9,76.6l-17.4,0c-0.6,0 -1.1,0.5 -1.1,1.1s0.5,1.1 1.1,1.1l17.4,0c0.6,0 1.1,-0.5 1.1,-1.1s-0.5,-1.1 -1.1,-1.1z" class="st1"/>
   <path id="svg_146" d="m475.9,80.7l-17.4,0c-0.6,0 -1.1,0.5 -1.1,1.1s0.5,1.1 1.1,1.1l17.4,0c0.6,0 1.1,-0.5 1.1,-1.1s-0.5,-1.1 -1.1,-1.1z" class="st1"/>
   <path id="svg_147" d="m475.9,84.8l-17.4,0c-0.6,0 -1.1,0.5 -1.1,1.1s0.5,1.1 1.1,1.1l17.4,0c0.6,0 1.1,-0.5 1.1,-1.1s-0.5,-1.1 -1.1,-1.1z" class="st1"/>
   <path id="svg_148" d="m471.1,88.9l-12.6,0c-0.6,0 -1.1,0.5 -1.1,1.1c0,0.6 0.5,1.1 1.1,1.1l12.6,0c0.6,0 1.1,-0.5 1.1,-1.1c0,-0.6 -0.5,-1.1 -1.1,-1.1z" class="st1"/>
  </g>
  <g id="svg_149">
   <path id="svg_150" d="m535.9,56l-13.3,0c-1.7,0 -3.1,1.4 -3.1,3.1l0,20.6c0,1.7 1.4,3.1 3.1,3.1l13.3,0c1.7,0 3.1,-1.4 3.1,-3.1l0,-20.6c0,-1.7 -1.4,-3.1 -3.1,-3.1zm-6.1,11.9l0.3,0l-0.2,0.4l-1.3,0c-0.6,0 -1,0.5 -1,1c0,0.6 0.5,1 1,1l0.5,0l-0.2,0.6l-1.4,0c-0.6,0 -1,0.5 -1,1s0.5,1 1,1l0.5,0l-0.9,2.2c-1.3,-1.8 -1.7,-5 -0.7,-7c0.5,-1.1 2.6,-2.9 5.5,-4.9l-1,2.5l-1.2,0c-0.6,0 -1,0.5 -1,1s0.5,1.2 1.1,1.2zm7.1,11.8c0,0.6 -0.5,1 -1,1l-9.9,0l1.4,-3.4c2.9,-0.2 7.3,-1.9 7.3,-6.8c0,-5.8 -1.1,-9.1 -1.1,-9.2c-0.1,-0.3 -0.3,-0.5 -0.7,-0.6c-0.3,-0.1 -0.6,-0.1 -0.9,0.1l-0.1,0.1c-2.8,1.8 -6.3,4.4 -7.3,6.4c-1.3,2.7 -0.8,6.8 1,9.1l-1.6,3.9c0,0.1 -0.1,0.2 -0.1,0.3l-1.2,0c-0.6,0 -1,-0.5 -1,-1l0,-20.5c0,-0.6 0.5,-1 1,-1l13.3,0c0.6,0 1,0.5 1,1l0,20.6l-0.1,0z" class="st1"/>
   <path id="svg_151" d="m515.4,56l-17.4,0c-0.6,0 -1.1,0.5 -1.1,1.1s0.5,1.1 1.1,1.1l17.4,0c0.6,0 1.1,-0.5 1.1,-1.1s-0.5,-1.1 -1.1,-1.1z" class="st1"/>
   <path id="svg_152" d="m515.4,60.1l-17.4,0c-0.6,0 -1.1,0.5 -1.1,1.1s0.5,1.1 1.1,1.1l17.4,0c0.6,0 1.1,-0.5 1.1,-1.1s-0.5,-1.1 -1.1,-1.1z" class="st1"/>
   <path id="svg_153" d="m515.4,64.2l-17.4,0c-0.6,0 -1.1,0.5 -1.1,1.1s0.5,1.1 1.1,1.1l17.4,0c0.6,0 1.1,-0.5 1.1,-1.1s-0.5,-1.1 -1.1,-1.1z" class="st1"/>
   <path id="svg_154" d="m515.4,68.3l-17.4,0c-0.6,0 -1.1,0.5 -1.1,1.1s0.5,1.1 1.1,1.1l17.4,0c0.6,0 1.1,-0.5 1.1,-1.1s-0.5,-1.1 -1.1,-1.1z" class="st1"/>
   <path id="svg_155" d="m515.4,72.4l-17.4,0c-0.6,0 -1.1,0.5 -1.1,1.1s0.5,1.1 1.1,1.1l17.4,0c0.6,0 1.1,-0.5 1.1,-1.1s-0.5,-1.1 -1.1,-1.1z" class="st1"/>
   <path id="svg_156" d="m515.4,76.6l-17.4,0c-0.6,0 -1.1,0.5 -1.1,1.1s0.5,1.1 1.1,1.1l17.4,0c0.6,0 1.1,-0.5 1.1,-1.1s-0.5,-1.1 -1.1,-1.1z" class="st1"/>
   <path id="svg_157" d="m515.4,80.7l-17.4,0c-0.6,0 -1.1,0.5 -1.1,1.1s0.5,1.1 1.1,1.1l17.4,0c0.6,0 1.1,-0.5 1.1,-1.1s-0.5,-1.1 -1.1,-1.1z" class="st1"/>
   <path id="svg_158" d="m515.4,84.8l-17.4,0c-0.6,0 -1.1,0.5 -1.1,1.1s0.5,1.1 1.1,1.1l17.4,0c0.6,0 1.1,-0.5 1.1,-1.1s-0.5,-1.1 -1.1,-1.1z" class="st1"/>
   <path id="svg_159" d="m510.6,88.9l-12.6,0c-0.6,0 -1.1,0.5 -1.1,1.1c0,0.6 0.5,1.1 1.1,1.1l12.6,0c0.6,0 1.1,-0.5 1.1,-1.1c0,-0.6 -0.5,-1.1 -1.1,-1.1z" class="st1"/>
  </g>
  <g id="svg_160">
   <path id="svg_161" d="m623.4,77c-1.3,0 -2.4,-1.1 -2.4,-2.4l0,2.1c0,1.4 1.1,2.5 2.5,2.5l14.6,0l0,-2.1l0,0l-14.7,-0.1c0,0 0,0 0,0z" class="st1"/>
   <path id="svg_162" d="m660.6,77c0,0 0,0 0,0l-14.3,0l0,0l2.8,2.1l11.4,0c1.4,0 2.4,-1.1 2.4,-2.5l0,-2.1c0.1,1.4 -1,2.5 -2.3,2.5z" class="st1"/>
   <path id="svg_163" d="m660.6,56l-37.1,0c-1.4,0 -2.5,1.1 -2.5,2.5l0,1.2l0,13.9c0,1.4 1.1,2.4 2.5,2.4l14.6,0l0,-2.1l-14.7,0c-0.2,0 -0.3,-0.2 -0.3,-0.3l0,-14l0,-1.2c0,-0.2 0.2,-0.4 0.3,-0.4l37.1,0c0.2,0 0.3,0.2 0.3,0.4l0,1.2l0,13.9c0,0.2 -0.2,0.3 -0.3,0.3l-18.4,0l2.9,2.2l15.6,0c1.4,0 2.4,-1.1 2.4,-2.4l0,-14l0,-1.2c0,-1.3 -1.1,-2.4 -2.4,-2.4z" class="st1"/>
   <path id="svg_164" d="m639.5,73.2c-0.1,0 -0.1,-0.1 -0.2,-0.1c-0.1,0 -0.2,0.1 -0.2,0.2l0,12.6l3.9,-2.9l0.5,1l3.5,7l1.9,-0.9l-3.5,-7.1l-0.5,-1l4.8,-1.1l-10.2,-7.7z" class="st1"/>
  </g>
  <g id="svg_165">
   <path id="svg_166" d="m721.8,78l-35.7,0c-1.7,0 -3.2,1.4 -3.2,3.2l0,6.7c0,1.7 1.4,3.2 3.2,3.2l35.7,0c1.7,0 3.2,-1.4 3.2,-3.2l0,-6.7c0,-1.8 -1.4,-3.2 -3.2,-3.2zm-14,7.5l-3.1,0l0,3.1l-1.4,0l0,-3.1l-3.1,0l0,-1.4l3.1,0l0,-3.1l1.4,0l0,3.1l3.1,0l0,1.4z" class="st1"/>
   <path id="svg_167" d="m721.8,56l-13.3,0c-1.7,0 -3.2,1.4 -3.2,3.2l0,13.3c0,1.7 1.4,3.2 3.2,3.2l13.3,0c1.7,0 3.2,-1.4 3.2,-3.2l0,-13.3c0,-1.8 -1.4,-3.2 -3.2,-3.2zm1.1,16.4c0,0.6 -0.5,1.1 -1.1,1.1l-13.3,0c-0.6,0 -1.1,-0.5 -1.1,-1.1l0,-13.2c0,-0.6 0.5,-1.1 1.1,-1.1l13.3,0c0.6,0 1.1,0.5 1.1,1.1l0,13.2z" class="st1"/>
   <path id="svg_168" d="m686.2,75.6l13.3,0c1.7,0 3.2,-1.4 3.2,-3.2l0,-13.2c0,-1.7 -1.4,-3.2 -3.2,-3.2l-13.3,0c-1.7,0 -3.2,1.4 -3.2,3.2l0,13.3c0,1.7 1.4,3.1 3.2,3.1zm-1.1,-16.4c0,-0.6 0.5,-1.1 1.1,-1.1l13.3,0c0.6,0 1.1,0.5 1.1,1.1l0,13.3c0,0.6 -0.5,1.1 -1.1,1.1l-13.3,0c-0.6,0 -1.1,-0.5 -1.1,-1.1l0,-13.3z" class="st1"/>
   <path id="svg_169" d="m715.7,63.8c0,0 0,0 0,0c0,-0.4 0.1,-0.7 0.6,-0.7c0.5,0 0.9,0 0.9,0l0,-1.3c0,0 -0.4,-0.1 -1,-0.1c-1.4,0 -1.9,0.8 -1.9,1.7c0,0.6 0,1.2 0,1.2l-1,0l0,1.4l1,0l0,3.8l1.4,0l0,-3.8l1.4,0l0.1,-1.4l-1.5,0c0,-0.5 0,-0.7 0,-0.8z" class="st1"/>
   <path id="svg_170" d="m687.9,68.9c0.9,0.6 2,0.9 3.1,0.9c3.7,0 5.8,-3.1 5.8,-5.8c0,-0.1 0,-0.2 0,-0.3c0.4,-0.3 0.7,-0.6 1,-1c-0.4,0.2 -0.8,0.3 -1.2,0.3c0.4,-0.3 0.7,-0.6 0.9,-1.1c-0.4,0.2 -0.8,0.4 -1.3,0.5c-0.4,-0.4 -0.9,-0.6 -1.5,-0.6c-1.1,0 -2,0.9 -2,2c0,0.2 0,0.3 0.1,0.5c-1.7,-0.1 -3.2,-0.9 -4.2,-2.1c-0.2,0.3 -0.3,0.6 -0.3,1c0,0.7 0.4,1.3 0.9,1.7c-0.3,0 -0.6,-0.1 -0.9,-0.3c0,0 0,0 0,0c0,1 0.7,1.8 1.6,2c-0.2,0 -0.3,0.1 -0.5,0.1c-0.1,0 -0.3,0 -0.4,0c0.3,0.8 1,1.4 1.9,1.4c-0.7,0.5 -1.6,0.9 -2.5,0.9c-0.2,-0.1 -0.4,-0.1 -0.5,-0.1z" class="st1"/>
  </g>
  <g id="svg_171">
   <path id="svg_172" d="m783.9,56l-6.7,0c-1.7,0 -3.1,1.4 -3.1,3.1l0,28.7c0,1.7 1.4,3.1 3.1,3.1l6.7,0c1.7,0 3.1,-1.4 3.1,-3.1l0,-28.7c0,-1.7 -1.4,-3.1 -3.1,-3.1zm-4.8,23.1l0,0l0,0l0,0zm2.4,-2.3l-3,0l2.3,-2.3l-4.7,0l0,-2.1l4.7,0l-2.3,-2.3l3,0l3.3,3.3l-3.3,3.4z" class="st1"/>
   <path id="svg_173" d="m768.8,56l-20.6,0c-1.7,0 -3.1,1.4 -3.1,3.1l0,10.1c0,1.7 1.4,3.1 3.1,3.1l20.6,0c1.7,0 3.1,-1.4 3.1,-3.1l0,-10.1c0,-1.7 -1.4,-3.1 -3.1,-3.1zm1,13.3c0,0.6 -0.5,1 -1,1l-20.6,0c-0.6,0 -1,-0.5 -1,-1l0,-10.2c0,-0.6 0.5,-1 1,-1l20.6,0c0.6,0 1,0.5 1,1l0,10.2z" class="st1"/>
   <path id="svg_174" d="m768.8,74.6l-20.6,0c-1.7,0 -3.1,1.4 -3.1,3.1l0,10.1c0,1.7 1.4,3.1 3.1,3.1l20.6,0c1.7,0 3.1,-1.4 3.1,-3.1l0,-10.1c0,-1.7 -1.4,-3.1 -3.1,-3.1zm1,13.3c0,0.6 -0.5,1 -1,1l-20.6,0c-0.6,0 -1,-0.5 -1,-1l0,-10.2c0,-0.6 0.5,-1 1,-1l20.6,0c0.6,0 1,0.5 1,1l0,10.2z" class="st1"/>
   <path id="svg_175" d="m758.9,62.1c0,-0.4 0.1,-0.6 0.6,-0.6c0.5,0 0.9,0 0.9,0l0,-1.3c0,0 -0.4,-0.1 -1,-0.1c-1.4,0 -1.9,0.8 -1.9,1.7c0,0.6 0,1.2 0,1.2l-1,0l0,1.4l1,0l0,3.8l1.4,0l0,-3.8l1.4,0l0.1,-1.4l-1.5,0c0,-0.7 0,-0.9 0,-0.9z" class="st1"/>
   <path id="svg_176" d="m763.1,78.9c-0.4,0.2 -0.8,0.4 -1.3,0.5c-0.4,-0.4 -0.9,-0.6 -1.5,-0.6c-1.1,0 -2,0.9 -2,2c0,0.2 0,0.3 0.1,0.5c-1.7,-0.1 -3.2,-0.9 -4.2,-2.1c-0.2,0.3 -0.3,0.6 -0.3,1c0,0.7 0.4,1.3 0.9,1.7c-0.3,0 -0.6,-0.1 -0.9,-0.3c0,0 0,0 0,0c0,1 0.7,1.8 1.6,2c-0.2,0 -0.3,0.1 -0.5,0.1c-0.1,0 -0.3,0 -0.4,0c0.3,0.8 1,1.4 1.9,1.4c-0.7,0.5 -1.6,0.9 -2.5,0.9c-0.2,0 -0.3,0 -0.5,0c0.9,0.6 2,0.9 3.1,0.9c3.7,0 5.7,-3.1 5.7,-5.7c0,-0.1 0,-0.2 0,-0.3c0.4,-0.3 0.7,-0.6 1,-1c-0.4,0.2 -0.8,0.3 -1.2,0.3c0.5,-0.4 0.9,-0.8 1,-1.3z" class="st1"/>
  </g>
  <g id="svg_177">
   <path id="svg_178" d="m844.2,75.6l-7,0c-0.6,0 -1,0.5 -1,1s0.5,1 1,1l7,0c0.6,0 1,-0.5 1,-1s-0.4,-1 -1,-1z" class="st1"/>
   <path id="svg_179" d="m833,75.6l-7,0c-0.6,0 -1,0.5 -1,1c0,0.6 0.5,1.1 1,1.1l7,0c0.6,0 1,-0.5 1,-1.1c0.1,-0.5 -0.4,-1 -1,-1z" class="st1"/>
   <path id="svg_180" d="m845.8,63.7l-35.7,0c-1.7,0 -3.2,1.4 -3.2,3.1l0,13.2c0,1.7 1.4,3.2 3.2,3.2l35.7,0c1.7,0 3.2,-1.4 3.2,-3.2l0,-13.1c0,-1.7 -1.4,-3.2 -3.2,-3.2zm-24.7,17.5l-11,0c-0.6,0 -1.1,-0.5 -1.1,-1.1l0,-13.2c0,-0.6 0.5,-1 1.1,-1l11,0l0,15.3zm25.8,-1.1c0,0.6 -0.5,1.1 -1.1,1.1l-22.6,0l0,-15.3l22.6,0c0.6,0 1.1,0.5 1.1,1l0,13.2z" class="st1"/>
   <path id="svg_181" d="m811.4,77.7c0.2,0 0.5,-0.1 0.7,-0.3l1.3,-1.1c0.4,0.1 1.1,0.3 1.8,0.3l0,0c1.6,0 2.3,-0.7 2.7,-1.4c1.4,-2.4 1.8,-4.6 1.8,-4.7c0.1,-0.3 0,-0.7 -0.3,-0.9c-0.2,-0.2 -0.6,-0.4 -0.9,-0.3c0,0 -3.9,0.8 -5.1,1.8c-1.1,0.8 -1.5,2.1 -1.3,3.6l-1.4,1.2c-0.4,0.4 -0.5,1 -0.1,1.5c0.3,0.2 0.5,0.3 0.8,0.3zm3.3,-4.9c0.3,-0.3 1.2,-0.6 2.2,-0.9l-2.7,2.4c-0.1,-0.6 0,-1.1 0.5,-1.5z" class="st1"/>
  </g>
  <g id="svg_182">
   <path id="svg_183" d="m885.6,66.5c-0.4,0 -0.8,0 -1.2,0.1c-0.6,0.1 -1,0.6 -0.9,1.2c0.1,0.6 0.6,1 1.2,0.9c0.3,-0.1 0.6,-0.1 0.8,-0.1c2.8,0 5.1,2.3 5.1,5.1c0,0.3 0,0.5 -0.1,0.8c-0.1,0.6 0.3,1.1 0.9,1.2c0.1,0 0.1,0 0.2,0c0.5,0 1,-0.4 1,-0.9c0.1,-0.4 0.1,-0.8 0.1,-1.2c0.2,-3.9 -3.1,-7.1 -7.1,-7.1z" class="st1"/>
   <path id="svg_184" d="m885.6,61.8c-0.3,0 -0.7,0 -1.1,0.1c-0.6,0.1 -1,0.6 -1,1.1s0.6,1 1.1,1c0.3,0 0.6,0 0.9,0c5.4,0 9.8,4.4 9.8,9.8c0,0.3 0,0.6 0,0.9c-0.1,0.6 0.4,1.1 1,1.1c0,0 0.1,0 0.1,0c0.5,0 1,-0.4 1,-1c0,-0.4 0.1,-0.7 0.1,-1.1c0,-6.5 -5.3,-11.9 -11.9,-11.9z" class="st1"/>
   <path id="svg_185" d="m907.8,56l-35.7,0c-1.7,0 -3.1,1.4 -3.1,3.1l0,19.4c0,1.7 1.4,3.1 3.1,3.1l35.7,0c1.7,0 3.1,-1.4 3.1,-3.1l0,-19.4c0.1,-1.7 -1.3,-3.1 -3.1,-3.1zm1.1,22.5c0,0.6 -0.5,1 -1,1l-35.7,0c-0.6,0 -1,-0.5 -1,-1l0,-19.4c0,-0.6 0.5,-1 1,-1l35.7,0c0.6,0 1,0.5 1,1l0,19.4z" class="st1"/>
   <circle id="svg_186" r="2.1" cy="73.7" cx="885.7" class="st1"/>
   <path id="svg_187" d="m909.9,84.2l-39.8,0c-0.6,0 -1,0.5 -1,1s0.5,1 1,1l39.8,0c0.6,0 1,-0.5 1,-1s-0.4,-1 -1,-1z" class="st1"/>
   <path id="svg_188" d="m909.9,88.9l-39.8,0c-0.6,0 -1,0.5 -1,1s0.5,1 1,1l39.8,0c0.6,0 1,-0.5 1,-1s-0.4,-1 -1,-1z" class="st1"/>
  </g>
  <g id="svg_189">
   <path id="svg_190" d="m969.8,75l-35.7,0c-1.7,0 -3.1,1.4 -3.1,3.1l0,9.7c0,1.7 1.4,3.2 3.1,3.2l35.7,0c1.7,0 3.1,-1.4 3.1,-3.2l0,-9.7c0.1,-1.7 -1.3,-3.1 -3.1,-3.1zm1.1,12.8c0,0.6 -0.5,1.1 -1,1.1l-35.7,0c-0.6,0 -1,-0.5 -1,-1.1l0,-9.7c0,-0.6 0.5,-1 1,-1l35.7,0c0.6,0 1,0.5 1,1l0,9.7z" class="st1"/>
   <path id="svg_191" d="m953.6,69.9c0.1,0 0.1,0 0.2,0c0.5,0 1,-0.4 1,-0.9c0.1,-0.4 0.1,-0.8 0.1,-1.2c0,-4 -3.2,-7.2 -7.2,-7.2c-0.4,0 -0.8,0 -1.2,0.1c-0.6,0.1 -1,0.6 -0.9,1.2c0.1,0.6 0.6,1 1.2,0.9c0.3,-0.1 0.6,-0.1 0.8,-0.1c2.8,0 5.1,2.3 5.1,5.1c0,0.3 0,0.5 -0.1,0.8c0,0.7 0.4,1.2 1,1.3z" class="st1"/>
   <path id="svg_192" d="m946.7,58.1c0.3,0 0.6,0 0.9,0c5.4,0 9.8,4.4 9.8,9.8c0,0.3 0,0.6 0,0.9c-0.1,0.6 0.4,1.1 1,1.1c0,0 0.1,0 0.1,0c0.5,0 1,-0.4 1,-1c0,-0.4 0.1,-0.7 0.1,-1.1c0,-6.6 -5.3,-11.9 -11.9,-11.9c-0.3,0 -0.7,0 -1.1,0.1c-0.6,0.1 -1,0.6 -1,1.1c0,0.7 0.6,1.1 1.1,1z" class="st1"/>
   <circle id="svg_193" r="2.1" cy="67.8" cx="947.7" class="st1"/>
   <path id="svg_194" d="m967.5,79.6l-30.8,0c-0.6,0 -1,0.5 -1,1s0.5,1 1,1l30.8,0c0.6,0 1,-0.5 1,-1s-0.4,-1 -1,-1z" class="st1"/>
   <path id="svg_195" d="m967.5,84.3l-30.8,0c-0.6,0 -1,0.5 -1,1s0.5,1 1,1l30.8,0c0.6,0 1,-0.5 1,-1s-0.4,-1 -1,-1z" class="st1"/>
  </g>
  <g id="svg_196">
   <path id="svg_197" d="m287.8,56l-35.7,0c-1.7,0 -3.2,1.4 -3.2,3.2l0,28.7c0,1.7 1.4,3.2 3.2,3.2l35.7,0c1.7,0 3.2,-1.4 3.2,-3.2l0,-28.7c0,-1.8 -1.4,-3.2 -3.2,-3.2zm1.1,31.8c0,0.6 -0.5,1.1 -1.1,1.1l-35.7,0c-0.6,0 -1.1,-0.5 -1.1,-1.1l0,-28.6c0,-0.6 0.5,-1.1 1.1,-1.1l35.7,0c0.6,0 1.1,0.5 1.1,1.1l0,28.6z" class="st1"/>
   <path id="svg_198" d="m285.7,84c0,-0.6 -0.5,-1.2 -1.2,-1.2s-1.2,0.5 -1.2,1.2c0,0.5 0.4,1 0.8,1.1l0,0l-0.2,0.2c-0.2,0.2 -0.3,0.6 -0.1,0.8c0.1,0.1 0.3,0.2 0.4,0.2c0.1,0 0.2,0 0.4,-0.1l0.8,-0.7c0.1,-0.1 0.2,-0.3 0.2,-0.4l0,-0.9c0,0 0,0 0,0l0.1,-0.2c0,0 0,0 0,0z" class="st1"/>
   <path id="svg_199" d="m282.7,84c0,-0.6 -0.5,-1.2 -1.2,-1.2s-1.2,0.5 -1.2,1.2c0,0.5 0.4,1 0.8,1.1l0,0l-0.2,0.2c-0.2,0.2 -0.3,0.6 -0.1,0.8c0.1,0.1 0.3,0.2 0.4,0.2c0.1,0 0.2,0 0.4,-0.1l0.8,-0.7c0.1,-0.1 0.2,-0.3 0.2,-0.4l0,-0.9c0,0 0,0 0,0l0.1,-0.2c0,0 0,0 0,0z" class="st1"/>
   <path id="svg_200" d="m254.3,62c0,0 0,0 0,0l0,0.9c0,0.2 0.1,0.3 0.2,0.4l0.8,0.7c0.1,0.1 0.2,0.1 0.4,0.1c0.2,0 0.3,-0.1 0.4,-0.2c0.2,-0.2 0.2,-0.6 -0.1,-0.8l-0.2,-0.2l0,0c0.5,-0.1 0.8,-0.6 0.8,-1.1c0,-0.6 -0.5,-1.2 -1.2,-1.2s-1.2,0.5 -1.2,1.2c0,0 0,0 0,0l0,0.2l0.1,0z" class="st1"/>
   <path id="svg_201" d="m257.3,62c0,0 0,0 0,0l0,0.9c0,0.2 0.1,0.3 0.2,0.4l0.8,0.7c0.1,0.1 0.2,0.1 0.4,0.1c0.2,0 0.3,-0.1 0.4,-0.2c0.2,-0.2 0.2,-0.6 -0.1,-0.8l-0.2,-0.2l0,0c0.5,-0.1 0.8,-0.6 0.8,-1.1c0,-0.6 -0.5,-1.2 -1.2,-1.2s-1.2,0.5 -1.2,1.2c0,0 0,0 0,0l0,0.2l0.1,0z" class="st1"/>
   <path id="svg_202" d="m284.7,60.7l-22.3,0c-0.6,0 -1.1,0.5 -1.1,1.1c0,0.6 0.5,1.1 1.1,1.1l22.3,0c0.6,0 1.1,-0.5 1.1,-1.1c-0.1,-0.6 -0.6,-1.1 -1.1,-1.1z" class="st1"/>
   <path id="svg_203" d="m277.6,84.2l-22.3,0c-0.6,0 -1.1,0.5 -1.1,1.1c0,0.6 0.5,1.1 1.1,1.1l22.3,0c0.6,0 1.1,-0.5 1.1,-1.1c0,-0.6 -0.5,-1.1 -1.1,-1.1z" class="st1"/>
   <path id="svg_204" d="m284.7,65.4l-29.3,0c-0.6,0 -1.1,0.5 -1.1,1.1c0,0.6 0.5,1.1 1.1,1.1l29.3,0c0.6,0 1.1,-0.5 1.1,-1.1c-0.1,-0.6 -0.6,-1.1 -1.1,-1.1z" class="st1"/>
   <path id="svg_205" d="m284.7,70.1l-29.3,0c-0.6,0 -1.1,0.5 -1.1,1.1c0,0.6 0.5,1.1 1.1,1.1l29.3,0c0.6,0 1.1,-0.5 1.1,-1.1c-0.1,-0.6 -0.6,-1.1 -1.1,-1.1z" class="st1"/>
   <path id="svg_206" d="m284.7,74.8l-29.3,0c-0.6,0 -1.1,0.5 -1.1,1.1c0,0.6 0.5,1.1 1.1,1.1l29.3,0c0.6,0 1.1,-0.5 1.1,-1.1c-0.1,-0.6 -0.6,-1.1 -1.1,-1.1z" class="st1"/>
   <path id="svg_207" d="m284.7,79.5l-29.3,0c-0.6,0 -1.1,0.5 -1.1,1.1c0,0.6 0.5,1.1 1.1,1.1l29.3,0c0.6,0 1.1,-0.5 1.1,-1.1c-0.1,-0.6 -0.6,-1.1 -1.1,-1.1z" class="st1"/>
  </g>
  <g id="svg_208">
   <polygon id="svg_209" points="388.3,61.5 390.3,63.5 392.6,61.3 392.6,67.1 395.5,67.1 395.5,61.3 397.7,63.5 399.7,61.5 394.1,56     " class="st1"/>
   <polygon id="svg_210" points="395.5,85.7 395.5,79.9 392.6,79.9 392.6,85.7 390.3,83.5 388.3,85.5 394.1,91 399.7,85.5 397.7,83.5     " class="st1"/>
   <path id="svg_211" d="m376.6,72l-2,0c-0.8,0 -1.5,0.7 -1.5,1.5s0.7,1.5 1.5,1.5l2,0c0.8,0 1.5,-0.7 1.5,-1.5s-0.7,-1.5 -1.5,-1.5z" class="st1"/>
   <path id="svg_212" d="m386.2,72l-3.5,0c-0.8,0 -1.5,0.7 -1.5,1.5s0.7,1.5 1.5,1.5l3.5,0c0.8,0 1.5,-0.7 1.5,-1.5s-0.7,-1.5 -1.5,-1.5z" class="st1"/>
   <path id="svg_213" d="m395.8,75c0.8,0 1.5,-0.7 1.5,-1.5s-0.7,-1.5 -1.5,-1.5l-3.5,0c-0.8,0 -1.5,0.7 -1.5,1.5s0.7,1.5 1.5,1.5l3.5,0z" class="st1"/>
   <path id="svg_214" d="m405.4,72l-3.5,0c-0.8,0 -1.5,0.7 -1.5,1.5s0.7,1.5 1.5,1.5l3.5,0c0.8,0 1.5,-0.7 1.5,-1.5s-0.6,-1.5 -1.5,-1.5z" class="st1"/>
   <path id="svg_215" d="m413.6,72l-2,0c-0.8,0 -1.5,0.7 -1.5,1.5s0.7,1.5 1.5,1.5l2,0c0.8,0 1.5,-0.7 1.5,-1.5s-0.7,-1.5 -1.5,-1.5z" class="st1"/>
  </g>
  <g id="svg_216">
   <path id="svg_217" d="m597.8,56l-35.7,0c-1.7,0 -3.2,1.4 -3.2,3.1l0,20.4c0,1.7 1.4,3.1 3.2,3.1l35.7,0c1.7,0 3.2,-1.4 3.2,-3.1l0,-20.4c0,-1.7 -1.4,-3.1 -3.2,-3.1zm1.1,23.5c0,0.6 -0.5,1 -1,1l-35.6,0c-0.6,0 -1,-0.5 -1,-1l0,-20.3c0,-0.6 0.5,-1 1,-1l35.6,0c0.6,0 1,0.5 1,1l0,20.3z" class="st1"/>
   <path id="svg_218" d="m596.2,62.9c-0.1,0 -9.6,-2.1 -15.3,-2.1c-1.2,0 -2.1,0.1 -2.8,0.3c-4.2,1 -7.1,4.5 -8,9.7l-6.3,1.9c-0.5,0.2 -0.9,0.7 -0.7,1.3c0.1,0.5 0.5,0.7 1,0.7c0.1,0 0.2,0 0.3,0l6.2,-1.8c1.2,1.4 4.9,5.3 9.2,5.3l0,0c0.9,0 1.8,-0.2 2.6,-0.6c9.3,-4 14.3,-12.7 14.5,-13.1c0.2,-0.3 0.2,-0.6 0.1,-0.9c-0.2,-0.4 -0.5,-0.6 -0.8,-0.7zm-2,1.8l0,0l-5.7,1.7l0,-0.7c0,-0.6 -0.5,-1 -1,-1s-1,0.5 -1,1l0,1.3l-3.4,1l0,-2.8c0,-0.6 -0.5,-1 -1,-1s-1,0.5 -1,1l0,3.4l-3.2,0.9l0,-2.5c0,-0.6 -0.5,-1 -1,-1s-1,0.5 -1,1l0,3.2l-3.6,1.1c0.5,-2.8 1.9,-7.2 6.5,-8.2c0.6,-0.1 1.4,-0.2 2.4,-0.2c4.2,0 10.6,1.2 13.4,1.7c-0.3,0 -0.4,0.1 -0.4,0.1z" class="st1"/>
   <path id="svg_219" d="m599.9,88.9l-39.9,0c-0.6,0 -1.1,0.5 -1.1,1.1c0,0.6 0.5,1.1 1.1,1.1l39.9,0c0.6,0 1.1,-0.5 1.1,-1.1c0,-0.6 -0.5,-1.1 -1.1,-1.1z" class="st1"/>
   <path id="svg_220" d="m599.9,84.8l-39.9,0c-0.6,0 -1.1,0.5 -1.1,1.1c0,0.6 0.5,1.1 1.1,1.1l39.9,0c0.6,0 1.1,-0.5 1.1,-1.1c0,-0.7 -0.5,-1.1 -1.1,-1.1z" class="st1"/>
  </g>
  <defs>
   <style type="text/css"/>
  </defs>
  <g stroke="null" id="svg_232">
   <path stroke="null" fill="#DDDDDD" id="svg_231" d="m1026.944709,10.401908c-0.041978,-0.947566 -0.881329,-1.737205 -1.888549,-1.737205l-4.784321,0c-0.377676,-4.343033 -4.196754,-7.817444 -8.813246,-7.817444s-8.435528,3.434958 -8.813246,7.817444l-5.078082,0c-0.965243,0 -1.72068,0.710695 -1.72068,1.737205l-1.846572,23.294442l0,0.078944c0,0.987059 0.839351,1.776697 1.88855,1.776697l31.265952,0c1.049199,0 1.88855,-0.789639 1.88855,-1.776697l-2.098398,-23.373426l0.000042,0.00004zm-15.486116,-7.54108c3.483295,0 6.33713,2.566336 6.714848,5.843366l-13.429696,0c0.377676,-3.316483 3.231511,-5.843366 6.714848,-5.843366zm-15.360182,30.717086l1.804636,-22.939135l4.658428,0l0,3.198047c-0.587567,0.315855 -1.007221,0.947566 -1.007221,1.697753c0,1.105494 0.923307,1.974117 2.098398,1.974117s2.098398,-0.868622 2.098398,-1.974117c0,-0.710695 -0.419654,-1.342366 -1.049199,-1.697753l0,-3.198047l13.51361,0l0,3.158555c-0.629545,0.355307 -1.049199,0.987059 -1.049199,1.697753c0,1.105494 0.923307,1.974117 2.098398,1.974117s2.098398,-0.868623 2.098398,-1.974117c0,-0.710695 -0.419654,-1.342366 -1.049199,-1.697753l0,-3.158555l4.532494,0l2.05642,22.939135l-30.80432,0l-0.000043,0z"/>
  </g>
 </g>
</svg>